<svg width="457" height="457" viewBox="0 0 457 457" fill="none" xmlns="http://www.w3.org/2000/svg">
<path d="M379.726 219.399C380.078 206.996 381.339 194.387 380.651 181.996C380.551 180.216 378.67 180.092 377.875 180.085C339.332 180.026 300.74 180.632 262.197 181.591C262.026 181.601 261.865 181.676 261.747 181.801C261.63 181.926 261.564 182.091 261.564 182.262C261.564 182.433 261.63 182.598 261.747 182.723C261.865 182.848 262.026 182.923 262.197 182.933C300.74 184.034 378.57 183.186 378.57 183.186C377.132 205.335 376.356 219.778 375.789 246.362C375.332 266.851 374.767 330.66 375.128 342.039C314.491 342.359 160.656 343.493 144.538 344.781C139.106 282.524 141.279 221.268 140.002 184.262C154.612 186.653 191.76 184.854 234.03 184.991C234.461 184.991 234.874 184.82 235.179 184.515C235.483 184.211 235.654 183.798 235.654 183.367C235.654 182.936 235.483 182.523 235.179 182.218C234.874 181.913 234.461 181.742 234.03 181.742C206.756 181.653 180.664 183.072 141.192 182.016C138.352 181.708 137.749 182.016 137.706 183.202C136.883 205.076 140.37 345.453 142.207 346.669C156.262 347.594 292.363 345.714 376.744 345.264C377.096 345.274 377.442 345.162 377.72 344.945C377.998 344.729 378.192 344.422 378.268 344.078C378.268 344.078 379.136 240.09 379.726 219.399Z" fill="#FEBD69"/>
<path d="M280.127 209.045C257.789 209.045 235.419 209.55 213.122 210.796C212.998 210.796 212.569 210.933 212.452 211.774C211.954 215.331 211.858 225.301 211.858 229.997C211.824 236.395 212.126 286.93 212.126 286.93C212.125 287.172 212.176 287.413 212.274 287.635C212.373 287.857 212.516 288.056 212.696 288.219C212.877 288.382 213.089 288.505 213.319 288.581C213.55 288.657 213.794 288.684 214.036 288.659C214.664 288.924 274.618 289.466 280.509 288.63C282.186 288.401 281.558 286.086 280.159 285.904C274.591 285.186 227.698 286.781 215.375 286.667C215.027 228.808 215.219 230.129 214.159 212.176C214.159 212.176 256.937 212.525 278.55 212.299C279.007 237.407 280.203 262.48 282.138 287.519C282.298 289.576 285.543 289.631 285.383 287.519C283.402 261.945 282.194 236.325 281.759 210.656C281.75 210.228 281.575 209.82 281.27 209.519C280.966 209.218 280.555 209.048 280.127 209.045Z" fill="#FEBD69"/>
<path d="M264.528 254.042C263.342 253.747 255.538 251.985 255.509 252.12C254.012 259.092 244.468 259.608 242.308 253.774C242.018 252.986 242.183 252.097 241.122 252.554C229.208 257.497 228.873 257.81 227.947 258.982C226.636 260.648 224.714 273.035 225.84 273.663C230.584 276.291 253.907 277.221 272.402 274.061C274.063 273.777 275.183 273.03 275.189 271.184C274.713 266.656 273.552 262.228 271.744 258.05C269.806 256.006 267.287 254.607 264.528 254.042Z" fill="#FEBD69"/>
<path d="M351.89 230.394C342.75 230.602 306.19 231.052 296.351 231.699C295.023 231.788 296.883 247.212 297.295 247.561C297.706 247.911 341.964 247.216 352.537 247.104C352.039 241.499 352.384 235.938 351.89 230.394Z" fill="#FEBD69"/>
<path d="M298.926 271.042C298.926 271.042 351.885 271.476 351.885 270.741C351.853 264.915 351.825 259.094 351.801 253.276C346.276 253.733 298.435 253.505 298.078 254.113C297.722 254.72 298.755 267.989 298.926 271.042Z" fill="#FEBD69"/>
<path d="M171.133 217.628C166.039 217.69 159.936 222.116 159.813 227.168C159.605 236.276 174.085 239.87 178.52 232.112C183.899 222.726 176.564 217.559 171.133 217.628Z" fill="#FEBD69"/>
<path d="M173.315 245.509C168.423 244.545 162.724 249.275 162.018 253.964C161.66 256.373 162.245 258.826 163.65 260.815C165.056 262.804 167.173 264.174 169.563 264.641C171.953 265.107 174.431 264.635 176.482 263.321C178.532 262.008 179.997 259.954 180.572 257.588C181.712 252.908 178.207 246.471 173.315 245.509Z" fill="#FEBD69"/>
<path d="M167.835 293.12C170.015 294.114 172.465 294.348 174.795 293.787C177.124 293.226 179.198 291.901 180.686 290.024C182.059 288.063 182.688 285.676 182.458 283.293C182.229 280.91 181.156 278.687 179.434 277.024C178.191 276.004 176.748 275.256 175.198 274.826C173.649 274.397 172.026 274.297 170.436 274.531C168.845 274.766 167.321 275.331 165.961 276.19C164.602 277.048 163.437 278.182 162.541 279.517C159.333 284.355 163.199 290.913 167.835 293.12Z" fill="#FEBD69"/>
<path d="M222.806 92.7093C223.171 92.8015 223.558 92.7478 223.884 92.5596C224.21 92.3714 224.451 92.0636 224.554 91.7013C224.657 91.339 224.615 90.9508 224.437 90.619C224.258 90.2872 223.958 90.0378 223.599 89.9239C203.155 84.0354 101.753 40.1109 100.842 40.641C87.8606 47.4823 28.9716 77.1142 22.7404 81.2774C22.5925 81.3623 22.4844 81.5024 22.4398 81.6669C22.3953 81.8315 22.4179 82.007 22.5027 82.1549C22.5876 82.3027 22.7277 82.4109 22.8922 82.4554C23.0568 82.5 23.2323 82.4774 23.3802 82.3925C30.0752 79.422 87.0905 50.2814 99.4364 44.4935C98.5407 48.5334 94.6927 69.1921 94.887 71.6119C94.8917 71.8653 94.9784 72.1103 95.1341 72.3103C95.2898 72.5102 95.5061 72.6543 95.7506 72.721C95.9952 72.7876 96.2547 72.7733 96.4903 72.68C96.726 72.5867 96.9251 72.4196 97.0577 72.2037C98.2436 70.0878 101.44 50.1763 101.701 46.7054C102.258 50.2289 105.924 70.0809 107.459 72.2974C107.962 73.0286 109.381 73.1108 109.575 72.0437C110.032 69.5051 105.099 48.2363 103.693 43.8171C108.106 45.6863 202.606 86.9831 222.806 92.7093Z" fill="#FEBD69"/>
<path d="M238.904 166.275C239.624 166.883 242.002 166.563 243.501 166.517C242.585 169.057 242.68 171.851 243.766 174.323C243.834 174.485 243.962 174.615 244.123 174.685C244.285 174.756 244.467 174.762 244.632 174.702H244.673C247.603 175.424 250.603 174.617 253.386 176.279C254.076 176.621 254.676 177.12 255.138 177.736C255.6 178.352 255.911 179.068 256.047 179.826C256.183 180.584 256.14 181.363 255.921 182.102C255.701 182.84 255.312 183.516 254.784 184.077C250 189.365 243.36 183.915 239.123 181.045C238.502 180.625 237.807 181.42 238.127 182.025C241.84 188.981 253.368 192.852 258.235 184.87C263.102 176.889 252.792 169.855 245.45 171.955C245.778 170.091 246.227 168.251 246.796 166.446C248.313 166.606 249.844 166.565 251.35 166.323C252.399 165.996 258.701 153.87 258.749 153.312C258.827 152.245 256.768 152.72 256.064 152.72C254.73 152.773 233.82 152.885 232.529 152.855C231.491 152.855 229.208 152.382 230.157 153.947C230.513 154.617 238.294 165.758 238.904 166.275Z" fill="#FEBD69"/>
<path d="M314.16 310.771C313.971 310.543 263.662 311.866 232.298 312.302C225.107 312.403 189.747 312.19 189.189 313.008C189.321 319.45 189.786 325.88 190.583 332.273C191.07 333.37 207.512 332.831 211.118 332.819C213.225 332.819 314.4 332.221 315.026 331.563C315.156 324.621 314.867 317.678 314.16 310.771ZM213.828 324.63C213.642 325.169 213.324 325.652 212.904 326.037C212.484 326.422 211.974 326.696 211.421 326.834C210.868 326.973 210.29 326.971 209.738 326.83C209.186 326.688 208.678 326.411 208.26 326.024C207.855 325.606 207.569 325.089 207.428 324.525C207.287 323.96 207.297 323.369 207.456 322.81C207.616 322.251 207.921 321.744 208.338 321.34C208.756 320.935 209.273 320.648 209.837 320.507C210.401 320.366 210.993 320.376 211.552 320.535C212.111 320.695 212.618 320.999 213.023 321.417C213.427 321.835 213.714 322.351 213.856 322.915C213.997 323.479 213.988 324.071 213.828 324.63ZM231.16 326.604C232.189 326.601 233.175 326.19 233.901 325.46C234.627 324.731 235.034 323.743 235.033 322.714C235.031 321.685 234.621 320.698 233.893 319.971C233.165 319.244 232.178 318.835 231.148 318.835C230.119 318.835 229.132 319.244 228.404 319.971C227.675 320.698 227.265 321.685 227.264 322.714C227.262 323.743 227.669 324.731 228.396 325.46C229.122 326.19 230.108 326.601 231.137 326.604H231.16ZM254.149 325.722C253.625 325.9 253.064 325.933 252.522 325.819C251.981 325.705 251.481 325.448 251.073 325.074C250.665 324.701 250.365 324.224 250.205 323.695C250.044 323.166 250.028 322.603 250.16 322.066C250.336 321.414 250.719 320.837 251.251 320.42C251.783 320.004 252.436 319.771 253.111 319.757C253.786 319.742 254.448 319.946 254.998 320.339C255.548 320.732 255.955 321.292 256.16 321.936C256.285 322.316 256.332 322.718 256.298 323.117C256.264 323.516 256.15 323.904 255.962 324.258C255.774 324.611 255.517 324.923 255.205 325.175C254.894 325.427 254.534 325.613 254.149 325.722ZM275.119 325.395C274.441 325.673 273.698 325.749 272.979 325.616C272.259 325.482 271.593 325.144 271.061 324.641C270.599 324.119 270.32 323.461 270.264 322.767C270.208 322.072 270.378 321.378 270.75 320.788C271.121 320.199 271.674 319.745 272.325 319.496C272.976 319.247 273.69 319.216 274.36 319.406C276.986 320.165 277.817 324.495 275.114 325.395H275.119ZM296.662 323.433C296.316 324.02 295.794 324.485 295.17 324.759C294.546 325.033 293.851 325.104 293.185 324.962C292.518 324.819 291.913 324.469 291.456 323.963C290.999 323.457 290.713 322.82 290.639 322.142C290.564 321.465 290.706 320.781 291.042 320.188C291.378 319.595 291.893 319.123 292.513 318.839C293.133 318.555 293.827 318.473 294.495 318.606C295.164 318.739 295.774 319.079 296.239 319.578C296.699 320.098 296.987 320.748 297.063 321.438C297.138 322.128 296.998 322.825 296.662 323.433Z" fill="#FEBD69"/>
<path d="M418.5 378.586C409.479 370.313 399.815 362.771 389.599 356.028C393.05 304.764 395.293 262.766 394.626 210.963C394.455 197.323 394.946 183.271 393.287 169.732C393.255 169.106 392.977 168.517 392.514 168.094C392.05 167.672 391.439 167.448 390.813 167.472C383.976 167.015 291.257 167.621 258.602 169.168C258.469 169.168 258.34 169.221 258.245 169.316C258.151 169.41 258.098 169.539 258.098 169.673C258.098 169.807 258.151 169.935 258.245 170.03C258.34 170.124 258.469 170.178 258.602 170.178C294.395 171.295 352.004 170.306 391.441 169.721C391.555 225.139 391.985 259.889 389.087 314.663C388.37 328.373 386.514 355.971 386.519 356.046C320.563 357.139 150.762 357.287 131.824 357.938C131.323 340.2 129.141 329.113 127.21 285.602C126.125 261.176 126.996 179.037 126.504 172.65C135.208 173.244 213.826 172.058 230.134 171.464C232.215 171.386 232.256 168.133 230.134 168.208C213.654 168.802 133.572 168.453 124.642 170.315C123.676 170.516 122.549 231.338 122.72 243.663C123.081 269.561 125.412 332.92 129.635 358.167C126.235 360.909 88.0478 402.777 87.7942 404.296C86.8802 408.078 89.236 415.747 89.236 415.747H443.845C444.74 411.935 445.317 408.055 445.57 404.148C445.648 403.444 422.88 382.525 418.5 378.586ZM101.203 393.422C101.203 393.422 118.34 374.098 121.731 370.165C125.065 366.731 128.142 363.056 130.94 359.172C131.157 359.661 387.943 360.466 390.611 359.024C394.804 362.824 419.965 382.404 429.685 393.07C432.841 396.536 436.163 399.846 439.641 402.99C394.93 402.761 116.999 402.894 91.8638 403.981C95.2318 400.746 98.1475 396.873 101.203 393.422Z" fill="black"/>
<path d="M246.91 184.925C238.803 193.105 231.018 201.647 223.754 210.588C223.639 210.724 223.58 210.899 223.586 211.077C223.593 211.255 223.667 211.425 223.792 211.552C223.917 211.679 224.084 211.755 224.263 211.766C224.441 211.776 224.616 211.719 224.755 211.607C232.869 204.327 240.423 196.439 247.934 188.547C254.09 196.343 260.242 204.145 266.39 211.952C267.681 213.595 269.995 211.301 268.707 209.667L249.204 184.932C248.901 184.627 248.489 184.455 248.059 184.453C247.628 184.452 247.215 184.622 246.91 184.925Z" fill="black"/>
<path d="M255.134 225.216C253.854 221.965 250.194 222.2 247.728 220.9C246.021 214.731 236.568 212.037 232.435 218.053C231.507 218.951 230.822 220.069 230.442 221.304C230.063 222.538 230.001 223.848 230.263 225.112C230.525 226.376 231.103 227.554 231.942 228.535C232.781 229.517 233.854 230.27 235.063 230.726C234.051 232.354 233.466 234.212 233.36 236.126C233.255 238.041 233.633 239.951 234.46 241.681C235.287 243.41 236.536 244.904 238.092 246.025C239.648 247.145 241.461 247.856 243.364 248.092C242.361 253.029 244.838 254.416 245.537 253.208C245.921 252.54 245.226 250.075 245.19 248.181C246.183 248.172 247.158 247.91 248.022 247.42C248.886 246.931 249.612 246.229 250.13 245.382C250.184 245.291 250.219 245.191 250.234 245.087C250.249 244.983 250.244 244.877 250.218 244.775C250.192 244.673 250.146 244.578 250.083 244.494C250.02 244.409 249.941 244.338 249.851 244.285C248.729 243.615 242.628 247.312 238.264 242.512C235.389 239.333 235.654 235.051 236.747 231.215C239.312 231.703 241.968 231.205 244.182 229.821C245.632 229.71 247.074 230.109 248.261 230.949C250.454 232.579 252.525 238.657 252.525 238.657C252.337 249.488 252.486 250.31 253.112 251.524C253.206 251.677 253.342 251.8 253.504 251.878C253.667 251.956 253.848 251.986 254.026 251.964C254.205 251.942 254.373 251.869 254.512 251.755C254.65 251.64 254.753 251.487 254.807 251.316C255.401 249.798 254.867 242.422 254.807 240.375C254.736 238.111 255.283 231.235 255.479 230.051C255.84 228.441 255.72 226.759 255.134 225.216Z" fill="black"/>
<path d="M352.975 190.071C324.104 190.736 295.238 191.851 266.401 192.852C266.256 192.852 266.117 192.909 266.015 193.012C265.913 193.114 265.855 193.253 265.855 193.398C265.855 193.543 265.913 193.682 266.015 193.784C266.117 193.886 266.256 193.944 266.401 193.944C294.793 193.874 323.183 193.676 351.57 193.35C351.2 196.018 351.148 198.722 351.417 201.402C349.079 201.343 320.54 202.755 313.55 202.91C299.803 203.205 285.933 202.851 272.219 203.888C272.037 203.899 271.866 203.978 271.741 204.11C271.616 204.243 271.546 204.418 271.546 204.6C271.546 204.782 271.616 204.957 271.741 205.09C271.866 205.222 272.037 205.302 272.219 205.312C285.929 206.205 299.815 205.495 313.543 205.223C337.142 204.747 353.711 204.645 354.566 203.852C355.057 199.659 355.075 195.424 354.618 191.227C354.533 190.867 354.319 190.55 354.016 190.337C353.714 190.124 353.343 190.029 352.975 190.071Z" fill="black"/>
<path d="M207.512 193.494C213.293 193.361 219.746 194.086 225.468 193.156C226.416 192.996 226.059 191.714 225.271 191.606C219.211 190.829 160.638 191.821 154.879 192.603C153.936 192.733 155.3 207.071 155.928 207.185C161.047 208.115 217.059 206.893 222.129 205.677C222.35 205.611 222.544 205.475 222.681 205.29C222.819 205.104 222.893 204.88 222.893 204.649C222.893 204.418 222.819 204.194 222.681 204.009C222.544 203.823 222.35 203.687 222.129 203.621C219.632 203.027 205.264 204.343 190.779 204.807C175.787 205.264 160.66 204.907 158.437 205.305C158.252 201.741 157.586 198.218 156.456 194.833C162.125 195.249 201.765 193.622 207.512 193.494Z" fill="black"/>
<path d="M145.278 370.961C142.71 374.116 139.937 377.099 136.977 379.89H124.668C124.477 379.905 124.299 379.991 124.17 380.132C124.04 380.272 123.968 380.456 123.968 380.647C123.968 380.838 124.04 381.022 124.17 381.162C124.299 381.302 124.477 381.388 124.668 381.403C128.106 381.609 131.545 381.769 134.984 381.906C132.98 383.675 131.415 385.886 130.414 388.366C130.359 388.591 130.378 388.828 130.468 389.041C130.558 389.255 130.714 389.434 130.914 389.552C131.113 389.67 131.346 389.721 131.576 389.697C131.807 389.673 132.023 389.576 132.194 389.419C134.434 387.086 136.533 384.622 138.478 382.038C153.532 382.537 178.189 382.63 176.905 382.63C175.148 384.749 173.813 387.184 172.972 389.805C172.933 390.042 172.966 390.285 173.068 390.503C173.169 390.72 173.334 390.902 173.541 391.024C173.748 391.146 173.987 391.203 174.226 391.186C174.466 391.169 174.695 391.081 174.883 390.932C177.017 388.44 178.766 385.641 180.07 382.63C193.714 382.735 207.353 382.769 220.987 382.731C220.262 384.967 220.015 387.33 220.263 389.668C220.3 389.796 220.363 389.914 220.446 390.018C220.53 390.121 220.633 390.207 220.749 390.271C220.866 390.335 220.994 390.375 221.126 390.389C221.258 390.403 221.392 390.391 221.52 390.353C223.151 389.878 223.777 383.853 223.921 382.719C223.921 382.719 256.825 382.546 271.221 382.377C271.426 385.513 272.153 388.593 273.373 391.489C273.485 391.673 273.653 391.816 273.853 391.897C274.052 391.978 274.273 391.992 274.481 391.938C274.689 391.883 274.875 391.763 275.009 391.595C275.144 391.427 275.221 391.22 275.229 391.005C275.118 388.075 274.652 385.169 273.842 382.351C289.393 382.182 304.947 381.985 320.504 381.76C321.63 384.767 322.331 387.975 323.702 390.879C323.821 391.074 323.999 391.226 324.211 391.312C324.422 391.398 324.656 391.413 324.877 391.356C325.098 391.299 325.294 391.172 325.438 390.994C325.581 390.817 325.663 390.598 325.672 390.37C325.367 387.391 324.616 384.475 323.447 381.719L368.818 381.006C370.645 384.901 372.91 388.576 375.57 391.958C375.734 392.121 375.947 392.225 376.177 392.256C376.406 392.287 376.64 392.242 376.841 392.128C377.043 392.014 377.202 391.837 377.293 391.624C377.385 391.412 377.405 391.175 377.35 390.95C375.91 387.372 373.982 384.01 371.621 380.96L391.859 380.651C392.195 380.651 392.516 380.518 392.753 380.281C392.99 380.044 393.123 379.723 393.123 379.388C393.123 379.053 392.99 378.731 392.753 378.494C392.516 378.257 392.195 378.124 391.859 378.124L369.985 378.462C367.973 375.31 365.917 372.187 363.816 369.094C363.718 368.968 363.577 368.882 363.421 368.852C363.264 368.822 363.102 368.849 362.964 368.93C362.827 369.01 362.723 369.138 362.672 369.289C362.622 369.44 362.628 369.605 362.689 369.752C364.234 372.7 365.815 375.623 367.433 378.522L322.366 379.244C320.91 376.209 319.281 373.261 317.485 370.415C317.353 370.221 317.154 370.084 316.926 370.031C316.699 369.978 316.459 370.012 316.256 370.127C316.052 370.242 315.899 370.43 315.827 370.652C315.755 370.875 315.77 371.116 315.867 371.329C317.196 373.927 318.414 376.576 319.523 379.276C304.138 379.517 288.752 379.734 273.366 379.927C272.803 376.914 272.317 373.887 271.908 370.849C271.76 369.757 269.875 369.99 269.964 371.098C270.213 374.068 270.515 377.027 270.894 379.95C255.367 380.133 239.836 380.268 224.303 380.354C224.869 377.635 225.26 374.882 225.473 372.112C225.467 371.863 225.373 371.624 225.208 371.438C225.043 371.251 224.817 371.129 224.57 371.093C224.323 371.058 224.072 371.111 223.861 371.243C223.65 371.375 223.492 371.578 223.416 371.815C222.592 374.612 221.953 377.461 221.506 380.343C208.278 380.402 181.32 380.343 181.32 380.343C182.749 377.696 183.845 374.881 184.58 371.964C184.643 371.743 184.616 371.506 184.504 371.305C184.449 371.206 184.375 371.118 184.286 371.048C184.197 370.977 184.094 370.925 183.985 370.893C183.764 370.83 183.527 370.858 183.326 370.969C183.126 371.081 182.978 371.268 182.914 371.489C181.748 374.595 180.23 377.557 178.39 380.318C165.718 380.231 153.047 379.975 140.382 379.879C142.755 377.401 144.913 374.726 146.832 371.882C147.497 370.888 145.966 370.047 145.278 370.961Z" fill="black"/>
<path d="M115.196 100.638C115.987 99.7493 115.036 93.966 115.036 93.966C112.605 90.5934 110.649 88.0844 108.225 84.7163L95.6709 84.3439L95.8788 100.14C95.9702 108.039 109.066 100.497 115.196 100.638Z" fill="black"/>
<path d="M105.638 365.422C110.187 365.173 115.559 365.504 119.869 363.886C120.801 363.537 121.126 361.578 119.869 361.697C105.691 363.002 73.303 362.095 64.2064 362.741C64.6355 356.899 64.4225 351.027 63.5711 345.232C73.7485 345.337 121.382 344.318 124.055 343.367C124.245 343.309 124.412 343.191 124.53 343.031C124.648 342.871 124.712 342.677 124.712 342.478C124.712 342.279 124.648 342.086 124.53 341.926C124.412 341.766 124.245 341.648 124.055 341.589C121.462 340.945 118.782 340.719 116.117 340.92C116.135 340.691 119.147 172.104 115.523 127.174C115.511 126.95 115.415 126.74 115.252 126.586C115.09 126.432 114.875 126.346 114.651 126.346C114.427 126.346 114.212 126.432 114.05 126.586C113.888 126.74 113.791 126.95 113.779 127.174V128.591L105.946 134.76C105.946 134.76 98.0906 128.065 95.3509 125.894C98.2209 125.86 112.367 125.035 120.438 126.228C122.81 126.582 122.753 116.942 122.81 113.466C127.245 109.733 133.712 102.523 135.59 98.191C137.73 100.586 140.043 102.822 142.509 104.882C145.106 107.29 147.732 109.662 150.385 111.997C141.656 112.26 132.946 112.657 124.21 112.959C124.048 112.973 123.896 113.047 123.786 113.167C123.675 113.287 123.614 113.445 123.614 113.608C123.614 113.771 123.675 113.929 123.786 114.049C123.896 114.169 124.048 114.243 124.21 114.257C134.932 114.168 218.597 114.57 233.591 114.814C233.344 118.013 234.622 146.576 236.207 151.461C236.409 152.083 237.457 152.231 237.599 151.461C238.742 145.443 236.788 120.543 235.65 114.833C240.27 114.915 244.891 115.015 249.513 115.134C249.406 120.893 250.237 145.127 250.978 151.384C250.978 151.698 251.103 152 251.325 152.222C251.547 152.445 251.849 152.569 252.164 152.569C252.478 152.569 252.78 152.445 253.002 152.222C253.225 152 253.35 151.698 253.35 151.384C253.505 144.89 251.979 120.685 251.364 115.159L288.911 116.302C291.283 116.38 290.22 113.633 289.841 113.331C288.792 111.714 266.655 93.6096 265.974 93.6096C242.03 93.5548 134.683 93.3811 122.972 94.0666C122.883 92.8807 122.597 90.5089 122.597 90.4106C122.597 87.6458 114.924 75.2702 113.869 75.1582C105.467 74.2922 96.6305 75.1102 88.1623 74.9046C86.4623 74.8612 86.8119 90.9133 86.7913 93.2394C82.6395 93.3925 60.2602 93.3994 53.6794 93.5525L53.5126 83.6859C53.5115 83.3003 53.3595 82.9304 53.0892 82.6554C52.8189 82.3804 52.4517 82.2221 52.0662 82.2143C43.029 82.3011 21.5546 82.8998 12.2523 84.9563C11.8616 85.0454 11.4229 85.3356 11.4343 86.2268C11.4823 92.1129 11.4343 115.722 11.7542 121.644C11.7628 122.067 11.9338 122.47 12.2316 122.77C12.5294 123.07 12.9312 123.244 13.3537 123.255C19.4021 123.571 46.34 123.849 48.8854 122.835C49.1151 122.764 49.3162 122.622 49.4591 122.429C49.6019 122.236 49.679 122.002 49.679 121.762C49.679 121.522 49.6019 121.288 49.4591 121.095C49.3162 120.902 49.1151 120.759 48.8854 120.689C46.4245 119.835 20.4212 120.333 14.8824 120.095C14.4734 109.095 16.1094 97.1834 13.1046 86.5444C22.0504 86.6541 27.9868 85.2488 50.6038 85.1323C50.6632 90.9864 50.1056 115.091 51.1979 120.902C51.2815 121.201 51.4608 121.465 51.7084 121.652C51.9559 121.84 52.2581 121.942 52.5689 121.942C52.8796 121.942 53.1818 121.84 53.4294 121.652C53.6769 121.465 53.8562 121.201 53.9399 120.902C54.2713 118.583 54.4059 116.24 54.342 113.898C59.8397 114.076 86.7388 115.084 86.7388 115.084C86.7388 115.084 86.2521 125.218 86.8027 125.355C89.1593 125.697 91.537 125.873 93.9182 125.883C93.9182 125.883 103.572 135.994 104.082 136.437C101.332 138.821 98.4258 141.018 95.3829 143.014C95.0816 137.791 94.6664 132.575 94.1376 127.37C94.0256 126.274 92.3599 126.185 92.3599 127.37C92.4535 141.254 94.5123 199.193 94.6837 211.575C94.8916 226.322 94.5946 283.194 94.2678 296.412C94.1193 302.628 92.7026 333.178 92.6501 341.9C82.8063 342.256 73.0288 343.561 63.1736 343.477C60.363 343.477 61.2222 364.901 62.8902 365.068C69.8869 365.705 100.794 365.687 105.638 365.422ZM160.786 111.787C159.039 111.81 157.287 111.841 155.531 111.88C160.349 107.347 164.846 102.482 168.987 97.3227C173.228 102.383 177.763 107.19 182.567 111.718C175.568 111.762 167.715 111.702 160.75 111.803L160.786 111.787ZM185.693 111.579C188.385 108.873 198.441 99.7197 200.043 97.3822C203.892 102.489 208.18 107.251 212.857 111.613C197.918 111.508 184.816 111.579 185.693 111.579ZM218.668 111.627C222.519 107.261 226.055 102.626 229.247 97.7569C232.683 102.786 236.55 107.505 240.805 111.862C229.496 111.686 217.669 111.627 218.675 111.627H218.668ZM243.177 110.985C241.849 108.359 233.047 99.201 230.838 96.8452H252.344C252.175 97.0851 242.786 110.985 243.177 110.985ZM216.794 110.836C212.139 105.85 207.216 101.121 202.047 96.6692C209.997 96.7241 217.951 96.7675 225.909 96.7995C222.606 101.301 219.564 105.988 216.794 110.836ZM244.671 111.947C248.351 107.838 251.681 103.428 254.627 98.7646C258.131 103.792 262.238 108.373 266.854 112.404C259.789 112.219 244.662 111.947 244.662 111.947H244.671ZM285.44 112.984C280.143 112.806 269.463 112.42 269.463 112.42C269.463 112.42 275.151 103.419 275.162 103.28C275.823 103.84 284.595 112.082 285.431 112.984H285.44ZM273.727 102.016C273.586 102.064 268.776 109.1 268.392 110.062C266.884 108.154 258.518 99.3221 255.991 96.8932H265.995C268.671 98.4419 271.25 100.152 273.718 102.014L273.727 102.016ZM196.51 96.5344C194.724 98.253 193.03 100.064 191.435 101.961C188.961 104.557 186.692 107.256 184.45 110.055C180.383 105.284 176.026 100.768 171.403 96.5344H196.51ZM165.793 96.4065C163.677 98.3213 153.886 110.836 153.886 110.836C153.886 110.836 139.566 98.0585 136.655 96.3333C139.966 96.3539 166.129 96.4065 165.793 96.4065ZM133.997 96.2739C130.885 99.6329 131.431 101.141 122.837 111.04C122.837 103.773 123.239 100.702 123.052 95.8832C126.693 96.0736 130.342 96.2038 133.999 96.2739H133.997ZM112.907 77.7197C113.718 80.1213 118.569 89.5012 120.424 91.1098C119.493 101.736 119.222 112.41 119.613 123.07C114.531 122.613 94.5946 122.542 89.5196 122.654C89.4105 119.171 89.4814 115.684 89.7321 112.207C89.8509 107.914 89.8852 76.5384 89.8852 76.5384C89.8852 76.5384 105.25 77.233 112.907 77.7197ZM86.6451 110.546C85.9596 109.675 73.664 96.3151 73.6891 96.2785C78.0695 96.2259 82.4407 96.0249 86.7342 95.7392C86.7342 96.9092 86.6451 110.546 86.6451 110.546ZM69.1694 96.2556C66.9529 98.0836 64.8896 100.3 62.8788 102.055C59.9974 104.568 56.8418 107.013 54.1387 109.765C54.013 107.393 53.7342 97.6678 53.6817 95.1177C58.8149 95.8247 63.9879 96.2048 69.1694 96.2556ZM54.7373 112.212C58.1351 109.927 69.2242 99.9322 71.6669 97.5375C74.6374 100.341 82.6532 110.423 84.0059 112.006C82.5069 111.976 60.0797 111.709 54.7373 112.212ZM113.72 145.906L105.59 157.35C105.59 157.35 100.335 150.134 97.3891 146.903C99.7495 147.282 113.72 145.906 113.72 145.906ZM105.905 211.081C103.534 208.033 101.226 204.83 98.5933 202.037C103.04 202.723 113.738 200.785 113.738 200.785C113.738 200.785 108.122 207.688 105.905 211.081ZM114.36 198.004C112.036 193.986 109.393 190.161 106.456 186.566C109.131 183.268 111.326 179.61 112.977 175.698C113.222 174.981 112.308 174.588 111.791 175.013C108.963 177.693 106.563 180.793 104.676 184.203C102.391 181.143 97.2406 174.663 97.2406 174.663L113.999 174.069C113.999 174.069 114.241 190.027 114.33 198.014L114.36 198.004ZM104.882 188.885C107.109 192.459 109.594 195.866 112.317 199.078C111.949 198.916 98.7807 199.389 97.4874 199.535C101.733 193.981 104.614 188.885 104.882 188.885ZM97.4623 203.737C99.5395 207.091 101.844 210.297 104.361 213.334C102.195 216.369 99.8067 219.323 97.7182 222.429C97.4828 203.18 97.2315 203.744 97.46 203.744L97.4623 203.737ZM113.96 167.228C111.923 164.517 109.745 161.915 107.436 159.431C109.958 156.169 112.091 152.625 113.793 148.87C113.781 154.992 113.821 161.114 113.912 167.235L113.96 167.228ZM114.001 170.372V172.657C108.277 172.221 102.528 172.221 96.8042 172.657C99.9072 169.17 102.859 165.626 105.629 161.865C108.2 164.91 110.998 167.756 113.999 170.379L114.001 170.372ZM96.4729 169.981C96.2169 162.502 95.9565 155.014 95.5726 147.529C98.0778 151.782 100.883 155.851 103.968 159.706C103.696 160.19 98.8675 166.821 96.4706 169.988L96.4729 169.981ZM103.202 186.506C101.194 189.584 99.1052 192.676 97.2726 195.875C97.1203 189.449 96.9344 183.031 96.7151 176.619C98.8081 179.951 100.97 183.249 103.2 186.513L103.202 186.506ZM97.7045 225.84C100.808 222.708 103.605 219.286 106.058 215.622C108.485 219.053 111.294 222.196 114.433 224.99V226.846C108.863 226.26 103.237 226.46 97.7227 227.44C97.7098 226.907 97.7038 226.374 97.7045 225.84ZM107.683 213.353C110.366 209.992 112.616 206.307 114.378 202.385C114.415 206.82 114.444 221.579 114.444 221.579C112.386 218.7 109.932 216.056 107.683 213.353ZM114.426 229.16C114.406 229.636 114.623 228.703 105.764 240.313C103.307 236.52 100.626 232.876 97.7342 229.403C103.282 230.106 108.901 230.024 114.426 229.16ZM105.727 245.011C108.289 248.83 110.809 252.78 113.709 256.372C111.163 256.065 108.595 255.989 106.036 256.144C103.266 256.089 100.495 256.18 97.7342 256.416V255.664C100.663 252.32 103.335 248.759 105.727 245.011ZM113.039 337.481C113.039 337.481 109.564 332.143 107.466 329.737C109.826 325.869 111.866 321.815 113.565 317.615C113.482 321.753 113.501 324.326 113.051 337.481H113.039ZM113.656 311.983C111.236 311.898 100.367 312.474 97.3777 312.629C100.74 309.478 103.634 305.861 105.972 301.89C108.255 305.112 110.836 308.114 113.679 310.856C113.667 311.121 113.667 312.213 113.667 311.983H113.656ZM113.994 285.89C113.994 285.89 103.586 285.221 98.6596 285.488C101.535 282.039 104.181 278.406 106.582 274.611C107.898 276.983 114.006 286.121 114.006 285.89H113.994ZM97.2543 290.46C99.5256 293.543 101.797 296.63 104.18 299.628C101.5 302.934 99.0365 306.41 96.8042 310.033L97.2658 290.451L97.2543 290.46ZM105.994 258.927C108.533 259.18 111.088 259.206 113.631 259.005C111.154 262.236 108.983 265.698 106.776 269.125C104.47 265.471 101.968 261.944 99.2811 258.559C99.288 258.326 98.2552 258.676 106.006 258.923L105.994 258.927ZM105.01 271.835C102.455 275.672 99.7861 279.444 97.3846 283.381C97.5186 275.87 97.6176 268.359 97.6816 260.849C100.207 264.982 102.336 267.215 105.021 271.83L105.01 271.835ZM105.764 297.358C102.969 294.185 97.3092 287.793 97.3092 287.727C102.3 288.643 107.406 288.743 112.429 288.024C110.049 291.015 107.828 294.13 105.775 297.354L105.764 297.358ZM114.035 282.433C112.437 278.721 110.589 275.121 108.503 271.659C110.61 268.477 112.529 265.175 114.25 261.77C114.207 268.659 114.047 282.426 114.047 282.426L114.035 282.433ZM96.7082 314.686C99.9072 314.958 112.125 315.028 112.125 315.028C112.125 315.028 107.916 323.396 105.448 327.367C105.355 327.253 99.5599 320.131 96.6671 316.758C96.6968 316.068 96.7196 314.681 96.7196 314.681L96.7082 314.686ZM103.652 330.162C101.073 333.887 98.0015 337.271 95.5749 341.096C96.169 334.193 96.418 327.244 96.5848 320.302C98.6048 323.19 103.355 329.726 103.664 330.157L103.652 330.162ZM98.6642 341.635C101.273 338.987 103.568 336.046 105.503 332.872C107.868 335.785 110.43 338.534 113.169 341.098C113.169 341.098 102.348 341.512 98.6756 341.63L98.6642 341.635ZM113.953 289.121L113.725 306.352C113.725 306.352 109.557 301.716 107.676 299.511C110.048 296.221 112.151 292.745 113.965 289.117L113.953 289.121ZM107.395 242.644L114.41 232.59C114.41 232.59 114.351 245.957 114.31 252.646C112.15 249.191 107.395 242.644 107.395 242.644ZM112.852 140.26C111.49 138.879 110.006 137.624 108.417 136.513C110.305 134.683 112.082 132.743 113.738 130.702V143.238L95.9702 144.641C99.4967 142.713 102.918 140.599 106.218 138.306C107.924 139.764 109.828 140.973 111.871 141.899C112.843 142.301 113.489 140.9 112.861 140.26H112.852ZM97.7296 233.216C98.3237 234.064 102.51 240.3 104.052 242.562C101.982 245.224 99.7107 247.934 97.7365 250.788C97.7654 244.917 97.7662 239.06 97.7387 233.216H97.7296Z" fill="black"/>
<path d="M106.709 396.854C116.976 398.093 127.464 397.501 137.785 397.579C147.725 397.654 407.123 397.846 418.639 396.962C420.193 396.843 421.569 395.545 420.305 393.404C418.249 389.915 398.383 370.207 388.729 363.699C387.376 362.785 368.353 363.592 363.39 363.628C355.434 363.683 154.555 363.752 136.51 364.494C136.276 364.517 136.058 364.627 135.899 364.802C135.741 364.977 135.653 365.204 135.653 365.44C135.653 365.676 135.741 365.904 135.899 366.079C136.058 366.253 136.276 366.363 136.51 366.386C145.433 366.535 378.394 367.462 387.371 366.688C392.547 371.468 414.563 391.38 416.491 393.07C406.91 392.767 397.233 393.45 387.65 393.591C377.713 393.744 120.209 394.037 109.566 394.592C114.042 390.561 117.986 385.573 122.019 381.168C126.566 376.761 130.759 372.002 134.559 366.937C135.206 365.959 133.873 365.157 133.071 365.751C127.907 369.699 123.584 375.167 119.09 379.863C114.492 384.249 110.172 388.917 106.156 393.84C105.816 394.3 103.954 396.523 106.709 396.854Z" fill="black"/>
</svg>
