<svg width="315" height="317" viewBox="0 0 315 317" fill="none" xmlns="http://www.w3.org/2000/svg">
<path d="M311.067 225.441C302.765 211.416 287.615 192.992 271.899 188.788L267.499 199.287C267.211 199.934 266.722 200.47 266.104 200.816C265.487 201.161 264.774 201.298 264.072 201.205L252.033 199.507C251.3 199.403 250.623 199.054 250.114 198.517C249.605 197.979 249.293 197.285 249.228 196.547C249.184 196.059 249.251 195.566 249.424 195.106L252.033 187.374C243.663 189.498 231.129 183.254 223.647 178.886L236.724 148.246C234.216 145.338 231.094 143.022 227.582 141.468C224.071 139.913 220.258 139.157 216.419 139.256L201.11 172.922C199.197 177.142 198.871 181.912 200.193 186.353C201.516 190.795 204.398 194.609 208.309 197.095C217.499 203.093 227.638 207.493 238.296 210.109C238.102 219.019 240.042 227.845 243.954 235.852C253.584 238.46 263.73 238.492 273.377 235.947C272.788 230.26 275.322 222.969 277.369 217.622L289.377 230.351L264.395 251.947C265.222 260.348 271.909 267.499 279.672 269.927L307.467 246.509C310.459 243.988 312.461 240.489 313.12 236.633C313.779 232.777 313.052 228.812 311.067 225.441Z" fill="#FDAE4B"/>
<path d="M38.124 109.73C36.4319 110.702 34.612 111.432 32.7173 111.899C15.3969 116.269 6.06081 138.933 1.60537 155.31C0.447642 159.557 0.962817 164.086 3.04476 167.965C5.1267 171.843 8.61682 174.775 12.7961 176.157C25.0561 180.101 37.8099 182.302 50.683 182.695C54.2696 176.684 55.3533 169.505 53.7007 162.703C43.9376 161.857 34.2696 160.141 24.8123 157.574C26.6046 152.577 28.8514 147.756 31.5244 143.17C33.8771 151.093 32.977 148.041 35.4951 156.662C45.8685 158.36 58.0966 159.114 69.633 156.191C71.4853 149.298 72.5919 142.227 72.9337 135.098C78.5499 139.549 84.8426 143.072 91.5727 145.534C94.1636 146.546 96.9311 147.029 99.7116 146.953C102.492 146.878 105.229 146.246 107.761 145.094C119.116 139.922 126.214 136.041 140.013 125.699C140.108 117.495 136.461 111.774 128.98 108.599C120.178 115.169 109.742 121.896 100.154 125.699C93.5097 120.731 86.4898 116.285 79.1577 112.402C71.0807 108.466 59.7311 107.184 58.0651 106.964C52.9032 113.019 48.0143 112.634 38.124 109.73Z" fill="#FDAE4B"/>
<path d="M47.3657 165.149C47.0174 165.149 46.6768 165.252 46.387 165.445C46.0972 165.638 45.8713 165.913 45.7381 166.235C45.6048 166.557 45.5701 166.911 45.6384 167.253C45.7067 167.594 45.8748 167.908 46.1216 168.154C46.3052 168.339 46.5277 168.48 46.7728 168.569C47.018 168.657 47.2797 168.69 47.539 168.664C47.7984 168.638 48.0487 168.556 48.272 168.421C48.4953 168.287 48.6859 168.105 48.8299 167.888C49.0235 167.598 49.1261 167.257 49.1261 166.91C49.118 166.445 48.93 166.002 48.6016 165.674C48.2732 165.346 47.8301 165.157 47.3657 165.149Z" fill="#FDAE4B"/>
<path d="M21.8095 174.768C22.2764 174.768 22.7241 174.583 23.0542 174.253C23.3844 173.923 23.5698 173.475 23.5698 173.008C23.5698 172.541 23.3844 172.094 23.0542 171.763C22.7241 171.433 22.2764 171.248 21.8095 171.248C21.3426 171.248 20.8949 171.433 20.5648 171.763C20.2346 172.094 20.0492 172.541 20.0492 173.008C20.0492 173.475 20.2346 173.923 20.5648 174.253C20.8949 174.583 21.3426 174.768 21.8095 174.768Z" fill="#FDAE4B"/>
<path d="M9.36142 151.224C9.82829 151.224 10.276 151.039 10.6062 150.708C10.9363 150.378 11.1218 149.931 11.1218 149.464C11.1218 148.997 10.9363 148.549 10.6062 148.219C10.276 147.889 9.82829 147.703 9.36142 147.703C8.89455 147.703 8.4468 147.889 8.11667 148.219C7.78655 148.549 7.60108 148.997 7.60108 149.464C7.60108 149.931 7.78655 150.378 8.11667 150.708C8.4468 151.039 8.89455 151.224 9.36142 151.224Z" fill="#FDAE4B"/>
<path d="M30.5797 136.292C31.0466 136.292 31.4943 136.107 31.8245 135.777C32.1546 135.447 32.3401 134.999 32.3401 134.532C32.3401 134.065 32.1546 133.617 31.8245 133.287C31.4943 132.957 31.0466 132.772 30.5797 132.772C30.1128 132.772 29.6651 132.957 29.335 133.287C29.0048 133.617 28.8194 134.065 28.8194 134.532C28.8194 134.999 29.0048 135.447 29.335 135.777C29.6651 136.107 30.1128 136.292 30.5797 136.292Z" fill="#FDAE4B"/>
<path d="M38.6899 112.308C38.3417 112.308 38.0014 112.411 37.7119 112.605C37.4224 112.798 37.1968 113.073 37.0635 113.395C36.9303 113.716 36.8954 114.07 36.9633 114.412C37.0313 114.753 37.1989 115.067 37.4451 115.313C37.6913 115.559 38.005 115.727 38.3464 115.795C38.6879 115.863 39.0418 115.828 39.3635 115.695C39.6852 115.562 39.9601 115.336 40.1535 115.046C40.3469 114.757 40.4502 114.417 40.4502 114.068C40.4429 113.604 40.2551 113.16 39.9266 112.832C39.598 112.503 39.1545 112.315 38.6899 112.308Z" fill="#FDAE4B"/>
<path d="M56.3246 129.974C55.9765 129.974 55.6361 130.077 55.3467 130.271C55.0572 130.464 54.8315 130.739 54.6983 131.061C54.5651 131.382 54.5302 131.736 54.5981 132.078C54.6661 132.419 54.8337 132.733 55.0799 132.979C55.3261 133.225 55.6397 133.393 55.9812 133.461C56.3227 133.529 56.6766 133.494 56.9983 133.361C57.32 133.228 57.5949 133.002 57.7883 132.712C57.9817 132.423 58.085 132.083 58.085 131.734C58.0777 131.27 57.8899 130.826 57.5614 130.498C57.2328 130.169 56.7892 129.981 56.3246 129.974Z" fill="#FDAE4B"/>
<path d="M42.0219 145.943C41.7863 145.936 41.5517 145.976 41.3319 146.061C41.1121 146.146 40.9116 146.275 40.7424 146.439C40.5732 146.603 40.4387 146.799 40.3468 147.016C40.2549 147.233 40.2076 147.467 40.2076 147.702C40.2076 147.938 40.2549 148.171 40.3468 148.389C40.4387 148.606 40.5732 148.802 40.7424 148.966C40.9116 149.13 41.1121 149.259 41.3319 149.344C41.5517 149.429 41.7863 149.469 42.0219 149.462C42.4792 149.448 42.9131 149.256 43.2316 148.928C43.5501 148.6 43.7283 148.16 43.7283 147.702C43.7283 147.245 43.5501 146.805 43.2316 146.477C42.9131 146.149 42.4792 145.957 42.0219 145.943Z" fill="#FDAE4B"/>
<path d="M82.0679 136.292C82.5347 136.292 82.9825 136.107 83.3126 135.777C83.6427 135.447 83.8282 134.999 83.8282 134.532C83.8282 134.065 83.6427 133.617 83.3126 133.287C82.9825 132.957 82.5347 132.772 82.0679 132.772C81.601 132.772 81.1533 132.957 80.8231 133.287C80.493 133.617 80.3075 134.065 80.3075 134.532C80.3075 134.999 80.493 135.447 80.8231 135.777C81.1533 136.107 81.601 136.292 82.0679 136.292Z" fill="#FDAE4B"/>
<path d="M99.0111 127.896C98.6629 127.896 98.3226 127.999 98.0331 128.193C97.7436 128.386 97.518 128.661 97.3847 128.983C97.2515 129.305 97.2166 129.659 97.2846 130C97.3525 130.341 97.5201 130.655 97.7663 130.901C98.0125 131.148 98.3262 131.315 98.6676 131.383C99.0091 131.451 99.3631 131.416 99.6847 131.283C100.006 131.15 100.281 130.924 100.475 130.635C100.668 130.345 100.771 130.005 100.771 129.657C100.764 129.192 100.576 128.748 100.248 128.42C99.9192 128.091 99.4757 127.903 99.0111 127.896Z" fill="#FDAE4B"/>
<path d="M120.355 135.255C120.822 135.255 121.27 135.07 121.6 134.74C121.93 134.41 122.115 133.962 122.115 133.495C122.115 133.028 121.93 132.58 121.6 132.25C121.27 131.92 120.822 131.735 120.355 131.735C119.888 131.735 119.441 131.92 119.11 132.25C118.78 132.58 118.595 133.028 118.595 133.495C118.595 133.962 118.78 134.41 119.11 134.74C119.441 135.07 119.888 135.255 120.355 135.255Z" fill="#FDAE4B"/>
<path d="M129.691 116.3C130.158 116.3 130.606 116.115 130.936 115.785C131.266 115.454 131.452 115.007 131.452 114.54C131.452 114.073 131.266 113.625 130.936 113.295C130.606 112.965 130.158 112.78 129.691 112.78C129.224 112.78 128.777 112.965 128.446 113.295C128.116 113.625 127.931 114.073 127.931 114.54C127.931 115.007 128.116 115.454 128.446 115.785C128.777 116.115 129.224 116.3 129.691 116.3Z" fill="#FDAE4B"/>
<path d="M64.9377 149.432C64.5895 149.432 64.2492 149.535 63.9597 149.729C63.6702 149.922 63.4446 150.197 63.3114 150.519C63.1781 150.84 63.1433 151.194 63.2112 151.536C63.2791 151.877 63.4468 152.191 63.693 152.437C63.9391 152.683 64.2528 152.851 64.5943 152.919C64.9357 152.987 65.2897 152.952 65.6113 152.819C65.933 152.686 66.2079 152.46 66.4014 152.17C66.5948 151.881 66.698 151.541 66.698 151.192C66.6908 150.728 66.503 150.284 66.1744 149.956C65.8459 149.627 65.4023 149.439 64.9377 149.432Z" fill="#FDAE4B"/>
<path d="M68.4269 115.2C68.8938 115.2 69.3416 115.014 69.6717 114.684C70.0018 114.354 70.1873 113.906 70.1873 113.44C70.1873 112.973 70.0018 112.525 69.6717 112.195C69.3416 111.865 68.8938 111.679 68.4269 111.679C67.9601 111.679 67.5123 111.865 67.1822 112.195C66.8521 112.525 66.6666 112.973 66.6666 113.44C66.6666 113.906 66.8521 114.354 67.1822 114.684C67.5123 115.014 67.9601 115.2 68.4269 115.2Z" fill="#FDAE4B"/>
<path fill-rule="evenodd" clip-rule="evenodd" d="M138.839 35.578L141.856 27.6251C139.91 24.8994 138.856 21.638 138.839 18.289C138.839 8.7329 147.326 1 157.794 1C168.261 1 176.717 8.7329 176.717 18.289C176.717 27.8451 168.23 35.578 157.762 35.578C153.857 35.5991 150.031 34.4733 146.76 32.3402L138.839 35.578ZM151.225 19.3197C151.361 19.1171 151.455 18.8898 151.502 18.6509C151.55 18.4119 151.55 18.1659 151.502 17.9269C151.455 17.6879 151.361 17.4607 151.225 17.2581C151.09 17.0555 150.916 16.8816 150.713 16.7462C150.511 16.6109 150.284 16.5167 150.045 16.4692C149.806 16.4217 149.56 16.4217 149.321 16.4693C149.082 16.5168 148.854 16.611 148.652 16.7463C148.449 16.8817 148.275 17.0557 148.14 17.2583C147.867 17.6674 147.767 18.1684 147.863 18.6511C147.959 19.1337 148.243 19.5584 148.652 19.8318C149.061 20.1051 149.562 20.2048 150.045 20.1087C150.527 20.0127 150.952 19.7289 151.225 19.3197ZM159.617 18.289C159.616 18.6556 159.507 19.0139 159.303 19.3185C159.099 19.6232 158.81 19.8607 158.471 20.001C158.132 20.1414 157.76 20.1783 157.4 20.1071C157.04 20.0359 156.71 19.8598 156.45 19.601C156.235 19.3853 156.076 19.1198 155.987 18.828C155.899 18.5361 155.884 18.227 155.943 17.928C156.003 17.6289 156.135 17.3492 156.329 17.1135C156.522 16.8778 156.771 16.6934 157.052 16.5767C157.334 16.46 157.64 16.4145 157.944 16.4444C158.247 16.4742 158.538 16.5784 158.792 16.7477C159.046 16.917 159.254 17.1462 159.397 17.4151C159.541 17.6839 159.617 17.9841 159.617 18.289ZM167.414 19.3197C167.6 19.0403 167.707 18.7157 167.723 18.3805C167.74 18.0452 167.665 17.7118 167.506 17.4157C167.348 17.1197 167.113 16.8721 166.825 16.6993C166.537 16.5264 166.208 16.4349 165.872 16.4344C165.505 16.4347 165.147 16.5436 164.842 16.7473C164.537 16.9511 164.299 17.2405 164.158 17.5792C164.054 17.8326 164.008 18.1059 164.022 18.3794C164.036 18.6529 164.11 18.9199 164.239 19.1614C164.368 19.4029 164.549 19.613 164.769 19.7765C164.988 19.9399 165.242 20.0529 165.51 20.1072C165.87 20.1785 166.242 20.1418 166.581 20.0017C166.92 19.8615 167.21 19.6243 167.414 19.3197Z" fill="#FDAE4B"/>
<path d="M262.752 109.73C262.751 110.223 262.642 110.709 262.431 111.154C262.22 111.599 261.913 111.992 261.532 112.304C261.152 112.617 260.706 112.841 260.229 112.961C259.751 113.081 259.253 113.093 258.77 112.998C258.151 112.874 257.58 112.578 257.124 112.143C256.667 111.708 256.344 111.152 256.191 110.54C256.038 109.928 256.061 109.285 256.259 108.686C256.457 108.088 256.821 107.557 257.309 107.157C257.797 106.757 258.388 106.504 259.014 106.426C259.64 106.349 260.275 106.451 260.845 106.721C261.415 106.99 261.897 107.416 262.235 107.949C262.572 108.482 262.752 109.1 262.752 109.73Z" fill="#FDAE4B"/>
<path d="M136.481 295.412L107.341 294.665C106.955 294.63 106.569 294.734 106.254 294.959C105.938 295.184 105.714 295.514 105.621 295.891C105.558 296.139 105.555 296.4 105.612 296.65L106.936 302.057C112.929 302.196 118.925 301.944 124.885 301.302C119.424 303.537 113.746 305.2 107.942 306.266L110.645 314.124C110.704 314.373 110.822 314.604 110.988 314.798C111.155 314.992 111.366 315.143 111.603 315.239C111.84 315.334 112.097 315.371 112.351 315.347C112.606 315.323 112.851 315.237 113.066 315.099C121.879 310.738 130.003 305.103 137.176 298.376C137.461 298.198 137.684 297.936 137.812 297.625C137.94 297.315 137.968 296.972 137.891 296.645C137.814 296.318 137.637 296.023 137.384 295.802C137.131 295.581 136.815 295.445 136.481 295.412Z" fill="#FDAE4B"/>
<path d="M262.092 176.497L259.106 179.987C259.327 178.943 259.432 177.878 259.42 176.812C260.318 176.779 261.212 176.673 262.092 176.497Z" fill="black"/>
<path d="M53.6841 104.638C52.749 103.617 52.2327 102.282 52.2381 100.897C52.9247 101.344 53.6411 101.741 54.3823 102.087C53.8896 102.844 53.6455 103.736 53.6841 104.638Z" fill="black"/>
<path d="M33.9118 139.216L33.3708 149.432L31.5162 143.083C32.2127 141.888 33.0002 140.636 33.9118 139.216Z" fill="black"/>
<path d="M72.922 135.098C73.0958 131.408 73.0015 127.709 72.6391 124.033L76.9407 138.053C75.5664 137.116 74.226 136.13 72.922 135.098Z" fill="black"/>
<path d="M61.1655 76.4429C61.1145 75.912 60.8875 75.4134 60.5206 75.0263C60.1537 74.6392 59.668 74.3858 59.1407 74.3063C58.6133 74.2268 58.0745 74.3259 57.6098 74.5877C57.1452 74.8495 56.7813 75.2591 56.5761 75.7513H56.2617C56.1006 75.2405 55.7733 74.7982 55.332 74.4947C54.8906 74.1911 54.3605 74.0438 53.8258 74.0762C53.2911 74.1085 52.7826 74.3186 52.381 74.6731C51.9795 75.0275 51.7079 75.506 51.6094 76.0326H51.4837C51.3219 75.441 50.9398 74.9339 50.4157 74.6154C49.8917 74.2969 49.2656 74.1911 48.666 74.3199C48.0664 74.4487 47.5389 74.8022 47.1919 75.3078C46.8448 75.8134 46.7046 76.4327 46.8 77.0385C46.6124 76.4299 46.1907 75.9207 45.6277 75.623C45.0647 75.3253 44.4066 75.2635 43.798 75.451C43.1894 75.6386 42.6802 76.0603 42.3825 76.6233C42.0848 77.1862 42.0229 77.8444 42.2105 78.453C43.4485 82.1804 44.4977 85.9678 45.354 89.8009C46.3913 94.8304 46.9257 100.237 45.354 103.037C48.466 98.4785 49.2518 93.889 48.7489 93.3861C43.908 88.6097 48.1831 84.1443 50.4149 87.5707C51.4837 89.2053 52.1124 89.2053 52.4582 88.2639C53.9042 83.3585 60.7883 76.5703 63.2121 86.9106L61.1655 76.4429Z" fill="black"/>
<path d="M266.304 104.072C266.292 104.369 266.166 104.649 265.953 104.855C265.739 105.061 265.454 105.176 265.158 105.177C264.86 105.178 264.575 105.063 264.36 104.856C264.146 104.65 264.02 104.369 264.009 104.072C264.021 103.775 264.147 103.495 264.361 103.289C264.575 103.083 264.861 102.968 265.158 102.967C265.454 102.967 265.74 103.082 265.954 103.289C266.167 103.495 266.293 103.775 266.304 104.072Z" fill="black"/>
<path d="M278.626 169.173C279.167 167.408 279.485 165.58 279.569 163.735C279.947 152.319 268.347 149.684 260.237 156.379C264.669 153.55 267.216 160.466 266.776 164.709C266.776 165.457 267.03 166.155 268.945 164.875C272.308 162.549 274.54 168.301 268.253 170.879C267.058 171.35 265.771 177.26 267.247 184.553C267.813 187.443 269.165 187.862 271.899 188.734C279.421 190.927 286.935 196.225 292.363 201.37C306.729 173.26 278.595 169.173 278.626 169.173Z" fill="black"/>
<path d="M266.304 104.072C266.292 104.369 266.166 104.649 265.953 104.855C265.739 105.061 265.454 105.176 265.158 105.177C264.86 105.178 264.575 105.063 264.36 104.856C264.146 104.65 264.02 104.369 264.009 104.072C264.021 103.775 264.147 103.495 264.361 103.289C264.575 103.083 264.861 102.968 265.158 102.967C265.454 102.967 265.74 103.082 265.954 103.289C266.167 103.495 266.293 103.775 266.304 104.072Z" stroke="black" stroke-width="2"/>
<path d="M243.954 235.844L238.767 248.544" stroke="black" stroke-width="2" stroke-linecap="round" stroke-linejoin="round"/>
<path d="M254.736 163.766H230.091" stroke="black" stroke-width="2" stroke-linecap="round" stroke-linejoin="round"/>
<path d="M279.538 163.75H295.35C296.302 163.748 297.246 163.935 298.126 164.299C299.007 164.662 299.808 165.195 300.482 165.869C301.157 166.541 301.693 167.34 302.058 168.22C302.424 169.1 302.612 170.043 302.611 170.996V212.647" stroke="black" stroke-width="2" stroke-linecap="round" stroke-linejoin="round"/>
<path d="M205.268 163.766H200.387L179.459 157.322L186.123 177.755V241.286C186.125 243.211 186.89 245.057 188.252 246.418C189.613 247.78 191.459 248.545 193.384 248.547H268.253" stroke="black" stroke-width="2" stroke-linecap="round" stroke-linejoin="round"/>
<path d="M123.09 112.841V97.0623C123.09 95.1366 122.324 93.2899 120.963 91.9282C119.601 90.5665 117.754 89.8013 115.829 89.8009H63.6803" stroke="black" stroke-width="2" stroke-linecap="round" stroke-linejoin="round"/>
<path d="M45.2911 89.8009H13.8251C11.9004 89.8031 10.0552 90.569 8.69473 91.9304C7.33422 93.2919 6.56959 95.1376 6.56871 97.0623V140.574" stroke="black" stroke-width="2" stroke-linecap="round" stroke-linejoin="round"/>
<path d="M85.6845 174.58H108.819L129.723 180.993L123.09 160.592V137.267" stroke="black" stroke-width="2" stroke-linecap="round" stroke-linejoin="round"/>
<path d="M158.391 280.767C151.971 287.834 144.185 293.526 135.502 297.499C126.82 301.471 117.423 303.641 107.878 303.879C98.3328 304.116 88.839 302.415 79.9702 298.878C71.1014 295.342 63.0419 290.044 56.2789 283.305C49.5159 276.565 44.1899 268.524 40.6229 259.667C37.056 250.811 35.3221 241.323 35.5262 231.777C35.7303 222.232 37.8681 212.827 41.8103 204.131C45.7525 195.435 51.4173 187.629 58.4622 181.184" stroke="black" stroke-width="2" stroke-linecap="round" stroke-linejoin="round"/>
<path d="M136.481 295.412L107.341 294.665C106.955 294.63 106.569 294.734 106.254 294.959C105.938 295.184 105.714 295.514 105.621 295.891C105.558 296.139 105.555 296.4 105.612 296.65L106.936 302.057C112.929 302.196 118.925 301.944 124.885 301.302C119.424 303.537 113.746 305.2 107.942 306.266L110.645 314.124C110.704 314.373 110.822 314.604 110.988 314.798C111.155 314.992 111.366 315.143 111.603 315.239C111.84 315.334 112.097 315.371 112.351 315.347C112.606 315.323 112.851 315.237 113.066 315.099C121.879 310.738 130.003 305.103 137.176 298.376C137.461 298.198 137.684 297.936 137.812 297.625C137.94 297.315 137.968 296.972 137.891 296.645C137.814 296.318 137.637 296.023 137.384 295.802C137.131 295.581 136.815 295.445 136.481 295.412Z" stroke="black" stroke-width="2" stroke-linecap="round" stroke-linejoin="round"/>
<path d="M259.42 176.78C260.317 176.763 261.211 176.668 262.092 176.497L259.106 179.955" stroke="black" stroke-width="2" stroke-linecap="round" stroke-linejoin="round"/>
<path d="M238.296 210.038C227.608 207.543 217.453 203.157 208.309 197.087C204.4 194.599 201.52 190.784 200.198 186.344C198.876 181.903 199.2 177.135 201.111 172.914L216.417 139.218C224.382 139.755 230.828 141.312 236.724 148.206L223.654 178.886C229.532 182.313 236.794 185.931 243.521 187.248C252.746 189.053 259.427 186.169 259.427 176.78C255.246 176.906 248.33 175.366 255.56 162.195C262.79 149.023 267.599 159.217 267.002 164.772C267.034 165.747 267.537 165.998 269.171 164.866C272.535 162.539 274.783 168.341 268.48 170.87C267.288 171.35 265.998 177.253 267.474 184.544C268.6 190.077 272.475 186.584 283.883 194.471C296.554 203.24 305.71 215.933 311.294 225.37C313.291 228.74 314.027 232.711 313.371 236.573C312.715 240.436 310.709 243.94 307.71 246.462L279.702 269.912C275.704 268.682 272.14 266.337 269.428 263.152C266.716 259.967 264.97 256.075 264.393 251.932L289.375 230.336L274.664 214.715" stroke="black" stroke-width="2" stroke-linecap="round" stroke-linejoin="round"/>
<path d="M53.6841 104.638C52.749 103.617 52.2327 102.282 52.2381 100.897C52.9247 101.344 53.6411 101.741 54.3823 102.087" stroke="black" stroke-width="2" stroke-linecap="round" stroke-linejoin="round"/>
<path d="M52.4268 88.2606C53.8727 83.3568 60.7883 76.567 63.1807 86.9089L63.7151 90.241C65.3811 105.462 58.1512 103.852 54.379 102.092C54.379 102.092 51.7418 105.991 56.5712 106.8C57.3454 106.929 57.8715 106.941 58.0602 106.966C54.288 112.498 47.3062 112.844 38.1307 109.732C46.6627 104.898 49.7333 94.4565 48.6927 93.4175C43.8948 88.6329 48.1235 84.1774 50.3587 87.6022C51.4258 89.2384 51.9933 89.2053 52.4019 88.3251L52.4268 88.2606Z" stroke="black" stroke-width="2" stroke-linecap="round" stroke-linejoin="round"/>
<path d="M31.5079 143.17C32.2936 141.843 33.095 140.524 33.9118 139.216L33.3708 149.463" stroke="black" stroke-width="2" stroke-linecap="round" stroke-linejoin="round"/>
<path d="M72.9221 135.098C73.0958 131.408 73.0015 127.709 72.6392 124.033L76.9407 138.053" stroke="black" stroke-width="2" stroke-linecap="round" stroke-linejoin="round"/>
<path d="M38.124 109.73C36.4319 110.702 34.612 111.432 32.7173 111.899C15.3969 116.269 6.06081 138.933 1.60537 155.31C0.447642 159.557 0.962817 164.086 3.04476 167.965C5.1267 171.843 8.61682 174.775 12.7961 176.157C25.0561 180.101 37.8099 182.302 50.683 182.695C54.2696 176.684 55.3533 169.505 53.7007 162.703C43.9376 161.857 34.2696 160.141 24.8123 157.574C26.6046 152.577 28.8514 147.756 31.5244 143.17C33.8771 151.093 32.977 148.041 35.4951 156.662C45.8685 158.36 58.0966 159.114 69.633 156.191C71.4853 149.298 72.5919 142.227 72.9337 135.098C78.5499 139.549 84.8426 143.072 91.5727 145.534C94.1636 146.546 96.9311 147.029 99.7116 146.953C102.492 146.878 105.229 146.246 107.761 145.094C119.116 139.922 126.214 136.041 140.013 125.699C140.108 117.495 136.461 111.774 128.98 108.599C120.178 115.169 109.742 121.896 100.154 125.699C93.5097 120.731 86.4898 116.285 79.1577 112.402C71.0807 108.466 59.7311 107.184 58.0651 106.964" stroke="black" stroke-width="2" stroke-linecap="round" stroke-linejoin="round"/>
<path d="M226.352 124.548C226.485 124.171 226.705 123.831 226.995 123.555C227.285 123.28 227.635 123.078 228.018 122.964C229.683 122.524 232.135 126.013 231.349 130.509C230.944 132.949 229.228 134.051 228.252 130.371" stroke="black" stroke-width="2" stroke-linecap="round" stroke-linejoin="round"/>
<path d="M229.746 123.719C230.024 123.444 230.371 123.247 230.752 123.153C232.421 122.724 234.964 125.259 234.367 129.817C234.056 132.184 232.633 132.762 231.445 129.835" stroke="black" stroke-width="2" stroke-linecap="round" stroke-linejoin="round"/>
<path d="M218.117 139.312C221.857 132.585 221.571 130.699 222.549 127.493C223.019 125.952 223.677 124.594 225.031 124.255C226.685 123.838 228.791 126.642 228.174 131.038C227.919 132.858 225.472 132.484 225.031 127.863" stroke="black" stroke-width="2" stroke-linecap="round" stroke-linejoin="round"/>
<path d="M235.592 146.98C236.787 144.371 245.12 129.152 244.174 128.717C243.14 128.24 237.51 133.243 237.51 133.243C237.51 133.243 230.909 134.155 231.349 138.372" stroke="black" stroke-width="2" stroke-linecap="round" stroke-linejoin="round"/>
<path d="M237.478 133.243C240.245 122.273 238.14 113.059 237.573 114.697C236.501 117.807 235.184 126.113 234.366 129.786" stroke="black" stroke-width="2" stroke-linecap="round" stroke-linejoin="round"/>
<path d="M223.523 129.786C224.151 129.617 224.816 129.657 225.419 129.9" stroke="black" stroke-width="2" stroke-linecap="round" stroke-linejoin="round"/>
<path d="M132.803 110.579C138.839 109.039 169.393 113.094 168.073 116.08C160.497 117.238 149.126 116.093 142.579 119.852C142.139 120.105 140.594 121.176 139.75 121.77" stroke="black" stroke-width="2" stroke-linecap="round" stroke-linejoin="round"/>
<path d="M133.652 110.422C145.408 107.656 158.422 92.2527 147.483 107.844C146.446 109.573 145.943 110.548 147.42 110.893" stroke="black" stroke-width="2" stroke-linecap="round" stroke-linejoin="round"/>
<path d="M143.019 119.601C148.992 117.243 180.332 125.133 158.58 116.772" stroke="black" stroke-width="2" stroke-linecap="round" stroke-linejoin="round"/>
<path d="M143.051 119.569C145.533 118.246 169.299 127.841 156.725 119.915" stroke="black" stroke-width="2" stroke-linecap="round" stroke-linejoin="round"/>
<path d="M70.0996 174.58C74.9405 177.227 76.6413 181.972 75.0034 183.256C74.1729 183.689 73.225 183.843 72.3 183.696" stroke="black" stroke-width="2" stroke-linecap="round" stroke-linejoin="round"/>
<path d="M71.9195 171.782C76.7604 174.429 78.4529 179.163 76.8232 180.458C76.4323 180.71 75.9936 180.879 75.5344 180.954" stroke="black" stroke-width="2" stroke-linecap="round" stroke-linejoin="round"/>
<path d="M51.3265 181.558C56.8394 180.567 62.5219 181.211 67.6725 183.413" stroke="black" stroke-width="2" stroke-linecap="round" stroke-linejoin="round"/>
<path d="M67.3581 177.315C71.9476 180.018 73.1669 183.815 71.6332 185.205C69.8348 186.831 63.806 185.991 62.1086 181.684" stroke="black" stroke-width="2" stroke-linecap="round" stroke-linejoin="round"/>
<path d="M53.8413 163.704C57.9278 163.578 73.7112 164.301 73.7708 165.495C73.8386 166.878 70.093 167.664 70.093 167.664" stroke="black" stroke-width="2" stroke-linecap="round" stroke-linejoin="round"/>
<path d="M53.8727 163.735C59.0065 164.105 64.0526 165.262 68.8356 167.161C68.8356 167.161 81.7932 172.125 87.6632 173.417C89.6155 173.845 84.0234 176.152 74.3681 173.542" stroke="black" stroke-width="2" stroke-linecap="round" stroke-linejoin="round"/>
<path d="M35.4835 156.662C34.2754 157.384 33.2099 158.322 32.3401 159.428" stroke="black" stroke-width="2" stroke-linecap="round" stroke-linejoin="round"/>
<path d="M69.6214 156.19L70.7845 164.615" stroke="black" stroke-width="2" stroke-linecap="round" stroke-linejoin="round"/>
<path d="M277.18 217.424C275.074 222.83 272.559 230.72 273.375 235.939C263.729 238.484 253.582 238.452 243.952 235.844C235.622 217.392 237.383 204.128 242.726 195.145" stroke="black" stroke-width="2" stroke-linecap="round" stroke-linejoin="round"/>
<path d="M260.065 156.518C269.348 148.713 283.333 153.191 278.595 169.181C278.595 169.181 306.721 173.268 292.363 201.37" stroke="black" stroke-width="2" stroke-linecap="round" stroke-linejoin="round"/>
<path d="M273.377 235.932C275.302 236.875 277.031 238.177 278.469 239.767" stroke="black" stroke-width="2" stroke-linecap="round" stroke-linejoin="round"/>
<path d="M272.088 188.788L267.499 199.256C267.211 199.903 266.722 200.439 266.104 200.785C265.487 201.131 264.774 201.267 264.072 201.173L252.033 199.507C251.3 199.404 250.623 199.054 250.114 198.517C249.605 197.979 249.293 197.285 249.228 196.548C249.184 196.059 249.251 195.566 249.424 195.106L252.41 187.279" stroke="black" stroke-width="2" stroke-linecap="round" stroke-linejoin="round"/>
<path d="M63.2088 86.9089L61.1026 76.4097C61.0253 75.8748 60.7763 75.3794 60.3931 74.9982C60.0099 74.6169 59.5133 74.3704 58.9779 74.2958C58.4426 74.2212 57.8975 74.3224 57.4246 74.5843C56.9518 74.8462 56.5768 75.2545 56.356 75.748C56.1693 75.2323 55.821 74.7907 55.363 74.4889C54.9051 74.1871 54.3619 74.0412 53.8144 74.073C53.2668 74.1048 52.7442 74.3125 52.3243 74.6653C51.9043 75.0181 51.6095 75.497 51.4837 76.0309C51.3192 75.4337 50.9329 74.922 50.4038 74.6C49.8747 74.2781 49.2426 74.1704 48.6367 74.2988C48.0308 74.4272 47.4968 74.782 47.1437 75.2909C46.7907 75.7998 46.6452 76.4243 46.7371 77.0368C46.5357 76.4451 46.1116 75.9551 45.5549 75.671C44.9982 75.3869 44.3526 75.3309 43.7553 75.515C43.158 75.6991 42.656 76.1088 42.3558 76.657C42.0556 77.2053 41.9809 77.8489 42.1476 78.4513C43.3856 82.1787 44.4348 85.9661 45.2911 89.7992C46.3135 94.7625 46.8479 100.087 45.3556 102.916" stroke="black" stroke-width="2" stroke-linecap="round" stroke-linejoin="round"/>
<path d="M151.538 18.2889C151.538 18.781 151.343 19.253 150.995 19.601C150.647 19.9489 150.175 20.1444 149.683 20.1444C149.191 20.1444 148.719 19.9489 148.371 19.601C148.023 19.253 147.827 18.781 147.827 18.2889C147.827 17.7968 148.023 17.3249 148.371 16.9769C148.719 16.629 149.191 16.4335 149.683 16.4335C150.175 16.4335 150.647 16.629 150.995 16.9769C151.343 17.3249 151.538 17.7968 151.538 18.2889Z" stroke="black" stroke-width="2" stroke-linecap="round" stroke-linejoin="round"/>
<path d="M159.617 18.289C159.616 18.6556 159.507 19.0138 159.303 19.3185C159.099 19.6232 158.81 19.8607 158.471 20.001C158.132 20.1413 157.76 20.1782 157.4 20.107C157.04 20.0358 156.71 19.8597 156.45 19.6009C156.235 19.3852 156.076 19.1197 155.987 18.8279C155.899 18.5361 155.884 18.227 155.943 17.9279C156.003 17.6289 156.135 17.3491 156.329 17.1134C156.522 16.8777 156.771 16.6934 157.052 16.5767C157.334 16.46 157.64 16.4145 157.944 16.4443C158.247 16.4741 158.539 16.5783 158.792 16.7476C159.046 16.917 159.254 17.1462 159.398 17.415C159.541 17.6839 159.617 17.984 159.617 18.289Z" stroke="black" stroke-width="2" stroke-linecap="round" stroke-linejoin="round"/>
<path d="M167.727 18.2889C167.726 18.6555 167.617 19.0138 167.413 19.3185C167.209 19.6231 166.92 19.8606 166.581 20.0009C166.243 20.1413 165.87 20.1782 165.51 20.107C165.151 20.0358 164.82 19.8597 164.56 19.6009C164.367 19.4065 164.219 19.1719 164.128 18.9138C164.036 18.6556 164.002 18.3804 164.029 18.1077C164.056 17.835 164.142 17.5716 164.283 17.3364C164.424 17.1011 164.614 16.8999 164.842 16.747C165.199 16.5095 165.627 16.4028 166.053 16.4451C166.48 16.4873 166.879 16.6758 167.183 16.9786C167.53 17.326 167.725 17.7975 167.727 18.2889Z" stroke="black" stroke-width="2" stroke-linecap="round" stroke-linejoin="round"/>
<path d="M265.55 100.237H253.259C252.375 100.237 251.527 100.588 250.903 101.213C250.278 101.838 249.927 102.686 249.927 103.569V115.86C249.927 117.7 251.419 119.192 253.259 119.192H265.55C266.433 119.192 267.281 118.841 267.906 118.216C268.531 117.591 268.882 116.744 268.882 115.86V103.569C268.882 102.686 268.531 101.838 267.906 101.213C267.281 100.588 266.433 100.237 265.55 100.237Z" stroke="black" stroke-width="2" stroke-linecap="round" stroke-linejoin="round"/>
<path d="M262.752 109.73C262.751 110.223 262.642 110.709 262.431 111.154C262.22 111.599 261.913 111.992 261.532 112.304C261.152 112.617 260.706 112.841 260.229 112.961C259.751 113.081 259.253 113.093 258.77 112.998C258.151 112.874 257.58 112.578 257.124 112.143C256.667 111.708 256.344 111.152 256.191 110.54C256.038 109.928 256.061 109.285 256.259 108.686C256.457 108.088 256.821 107.557 257.309 107.157C257.797 106.757 258.388 106.504 259.014 106.426C259.64 106.349 260.275 106.451 260.845 106.721C261.415 106.99 261.897 107.416 262.235 107.949C262.572 108.482 262.752 109.1 262.752 109.73Z" stroke="black" stroke-width="2" stroke-linecap="round" stroke-linejoin="round"/>
<path d="M232.48 264.669C232.48 265.21 232.32 265.74 232.019 266.188C231.72 266.639 231.293 266.99 230.793 267.197C230.293 267.404 229.743 267.458 229.213 267.351C228.683 267.245 228.195 266.985 227.813 266.602C227.43 266.22 227.17 265.733 227.064 265.202C226.992 264.829 226.998 264.444 227.083 264.074C227.168 263.703 227.329 263.354 227.557 263.049C227.784 262.745 228.073 262.491 228.404 262.304C228.735 262.117 229.101 262.001 229.48 261.964C229.858 261.927 230.24 261.969 230.602 262.088C230.963 262.206 231.295 262.399 231.578 262.654C231.86 262.909 232.086 263.219 232.242 263.566C232.397 263.913 232.478 264.289 232.48 264.669Z" stroke="black" stroke-width="2" stroke-linecap="round" stroke-linejoin="round"/>
<path d="M76.8977 59.0909V72.6707" stroke="black" stroke-width="2" stroke-linecap="round" stroke-linejoin="round"/>
<path d="M83.6727 65.8809H70.0929" stroke="black" stroke-width="2" stroke-linecap="round" stroke-linejoin="round"/>
<path d="M266.273 264.827C263.268 268.383 260.704 272.288 258.634 276.457C257.388 278.511 256.366 280.693 255.585 282.964C253.373 289.374 255.232 289.215 258.603 284.19C267.168 271.418 271.208 270.171 274.32 267.404" stroke="black" stroke-width="2" stroke-linecap="round" stroke-linejoin="round"/>
<path d="M256.276 281.078C254.265 282.47 252.078 283.589 249.773 284.407C249.111 284.586 248.077 284.063 251.282 281.295C251.973 280.698 254.832 278.117 255.808 277.146C257.849 275.276 259.782 273.293 261.599 271.205" stroke="black" stroke-width="2" stroke-linecap="round" stroke-linejoin="round"/>
<path d="M263.978 267.75C265.33 264.921 258.791 266.8 255.931 267.254C253.353 267.657 250.305 267.164 256.779 263.985C260.159 262.362 263.241 260.181 265.895 257.532" stroke="black" stroke-width="2" stroke-linecap="round" stroke-linejoin="round"/>
<path d="M141.856 27.6251L138.839 35.578L146.76 32.3402C150.031 34.4733 153.857 35.5991 157.762 35.578C168.23 35.578 176.717 27.8451 176.717 18.289C176.717 8.7329 168.261 1 157.794 1C147.326 1 138.839 8.7329 138.839 18.289C138.856 21.638 139.91 24.8994 141.856 27.6251Z" stroke="black" stroke-width="2" stroke-linecap="round" stroke-linejoin="round"/>
<path d="M289.377 230.343L291.766 228.488" stroke="black" stroke-width="2" stroke-linecap="round" stroke-linejoin="round"/>
<path d="M100.143 125.699L102.658 127.491" stroke="black" stroke-width="2" stroke-linecap="round" stroke-linejoin="round"/>
<path d="M24.7643 157.542L23.5698 160.403" stroke="black" stroke-width="2" stroke-linecap="round" stroke-linejoin="round"/>
<path d="M47.3657 165.149C47.0174 165.149 46.6768 165.252 46.387 165.445C46.0972 165.638 45.8713 165.913 45.7381 166.235C45.6048 166.557 45.5701 166.911 45.6384 167.253C45.7067 167.594 45.8748 167.908 46.1216 168.154C46.3052 168.339 46.5277 168.48 46.7728 168.569C47.018 168.657 47.2797 168.69 47.539 168.664C47.7984 168.638 48.0487 168.556 48.272 168.421C48.4953 168.287 48.6859 168.105 48.8299 167.888C49.0235 167.598 49.1261 167.257 49.1261 166.91C49.118 166.445 48.93 166.002 48.6016 165.674C48.2732 165.346 47.8301 165.157 47.3657 165.149Z" stroke="black" stroke-width="2"/>
<path d="M21.8095 174.768C22.2764 174.768 22.7241 174.583 23.0542 174.253C23.3844 173.923 23.5698 173.475 23.5698 173.008C23.5698 172.541 23.3844 172.094 23.0542 171.763C22.7241 171.433 22.2764 171.248 21.8095 171.248C21.3426 171.248 20.8949 171.433 20.5648 171.763C20.2346 172.094 20.0492 172.541 20.0492 173.008C20.0492 173.475 20.2346 173.923 20.5648 174.253C20.8949 174.583 21.3426 174.768 21.8095 174.768Z" stroke="black" stroke-width="2"/>
<path d="M9.36142 151.224C9.82829 151.224 10.276 151.039 10.6062 150.708C10.9363 150.378 11.1218 149.931 11.1218 149.464C11.1218 148.997 10.9363 148.549 10.6062 148.219C10.276 147.889 9.82829 147.703 9.36142 147.703C8.89455 147.703 8.4468 147.889 8.11667 148.219C7.78655 148.549 7.60108 148.997 7.60108 149.464C7.60108 149.931 7.78655 150.378 8.11667 150.708C8.4468 151.039 8.89455 151.224 9.36142 151.224Z" stroke="black" stroke-width="2"/>
<path d="M30.5797 136.292C31.0466 136.292 31.4943 136.107 31.8245 135.777C32.1546 135.447 32.3401 134.999 32.3401 134.532C32.3401 134.065 32.1546 133.617 31.8245 133.287C31.4943 132.957 31.0466 132.772 30.5797 132.772C30.1128 132.772 29.6651 132.957 29.335 133.287C29.0048 133.617 28.8194 134.065 28.8194 134.532C28.8194 134.999 29.0048 135.447 29.335 135.777C29.6651 136.107 30.1128 136.292 30.5797 136.292Z" stroke="black" stroke-width="2"/>
<path d="M38.6899 112.308C38.3417 112.308 38.0014 112.411 37.7119 112.605C37.4224 112.798 37.1968 113.073 37.0635 113.395C36.9303 113.716 36.8954 114.07 36.9633 114.412C37.0313 114.753 37.1989 115.067 37.4451 115.313C37.6913 115.559 38.005 115.727 38.3464 115.795C38.6879 115.863 39.0418 115.828 39.3635 115.695C39.6852 115.562 39.9601 115.336 40.1535 115.046C40.3469 114.757 40.4502 114.417 40.4502 114.068C40.4429 113.604 40.2551 113.16 39.9266 112.832C39.598 112.503 39.1545 112.315 38.6899 112.308Z" stroke="black" stroke-width="2"/>
<path d="M56.3246 129.974C55.9765 129.974 55.6361 130.077 55.3467 130.271C55.0572 130.464 54.8315 130.739 54.6983 131.061C54.5651 131.382 54.5302 131.736 54.5981 132.078C54.6661 132.419 54.8337 132.733 55.0799 132.979C55.3261 133.225 55.6397 133.393 55.9812 133.461C56.3227 133.529 56.6766 133.494 56.9983 133.361C57.32 133.228 57.5949 133.002 57.7883 132.712C57.9817 132.423 58.085 132.083 58.085 131.734C58.0777 131.27 57.8899 130.826 57.5614 130.498C57.2328 130.169 56.7892 129.981 56.3246 129.974Z" stroke="black" stroke-width="2"/>
<path d="M42.0219 145.943C41.7863 145.936 41.5517 145.976 41.3319 146.061C41.1121 146.146 40.9116 146.275 40.7424 146.439C40.5732 146.603 40.4387 146.799 40.3468 147.016C40.2549 147.233 40.2076 147.467 40.2076 147.702C40.2076 147.938 40.2549 148.171 40.3468 148.389C40.4387 148.606 40.5732 148.802 40.7424 148.966C40.9116 149.13 41.1121 149.259 41.3319 149.344C41.5517 149.429 41.7863 149.469 42.0219 149.462C42.4792 149.448 42.9131 149.256 43.2316 148.928C43.5501 148.6 43.7283 148.16 43.7283 147.702C43.7283 147.245 43.5501 146.805 43.2316 146.477C42.9131 146.149 42.4792 145.957 42.0219 145.943Z" stroke="black" stroke-width="2"/>
<path d="M82.0679 136.292C82.5347 136.292 82.9825 136.107 83.3126 135.777C83.6427 135.447 83.8282 134.999 83.8282 134.532C83.8282 134.065 83.6427 133.617 83.3126 133.287C82.9825 132.957 82.5347 132.772 82.0679 132.772C81.601 132.772 81.1533 132.957 80.8231 133.287C80.493 133.617 80.3075 134.065 80.3075 134.532C80.3075 134.999 80.493 135.447 80.8231 135.777C81.1533 136.107 81.601 136.292 82.0679 136.292Z" stroke="black" stroke-width="2"/>
<path d="M99.0111 127.896C98.6629 127.896 98.3226 127.999 98.0331 128.193C97.7436 128.386 97.518 128.661 97.3847 128.983C97.2515 129.305 97.2166 129.659 97.2846 130C97.3525 130.341 97.5201 130.655 97.7663 130.901C98.0125 131.148 98.3262 131.315 98.6676 131.383C99.0091 131.451 99.3631 131.416 99.6847 131.283C100.006 131.15 100.281 130.924 100.475 130.635C100.668 130.345 100.771 130.005 100.771 129.657C100.764 129.192 100.576 128.748 100.248 128.42C99.9192 128.091 99.4757 127.903 99.0111 127.896Z" stroke="black" stroke-width="2"/>
<path d="M120.355 135.255C120.822 135.255 121.27 135.07 121.6 134.74C121.93 134.41 122.115 133.962 122.115 133.495C122.115 133.028 121.93 132.58 121.6 132.25C121.27 131.92 120.822 131.735 120.355 131.735C119.888 131.735 119.441 131.92 119.11 132.25C118.78 132.58 118.595 133.028 118.595 133.495C118.595 133.962 118.78 134.41 119.11 134.74C119.441 135.07 119.888 135.255 120.355 135.255Z" stroke="black" stroke-width="2"/>
<path d="M129.691 116.3C130.158 116.3 130.606 116.115 130.936 115.785C131.266 115.454 131.452 115.007 131.452 114.54C131.452 114.073 131.266 113.625 130.936 113.295C130.606 112.965 130.158 112.78 129.691 112.78C129.224 112.78 128.777 112.965 128.446 113.295C128.116 113.625 127.931 114.073 127.931 114.54C127.931 115.007 128.116 115.454 128.446 115.785C128.777 116.115 129.224 116.3 129.691 116.3Z" stroke="black" stroke-width="2"/>
<path d="M64.9377 149.432C64.5895 149.432 64.2492 149.535 63.9597 149.729C63.6702 149.922 63.4446 150.197 63.3114 150.519C63.1781 150.84 63.1433 151.194 63.2112 151.536C63.2791 151.877 63.4468 152.191 63.693 152.437C63.9391 152.683 64.2528 152.851 64.5943 152.919C64.9357 152.987 65.2897 152.952 65.6113 152.819C65.933 152.686 66.2079 152.46 66.4014 152.17C66.5948 151.881 66.698 151.541 66.698 151.192C66.6908 150.728 66.503 150.284 66.1744 149.956C65.8459 149.627 65.4023 149.439 64.9377 149.432Z" stroke="black" stroke-width="2"/>
<path d="M68.4269 115.2C68.8938 115.2 69.3416 115.014 69.6717 114.684C70.0018 114.354 70.1873 113.906 70.1873 113.44C70.1873 112.973 70.0018 112.525 69.6717 112.195C69.3416 111.865 68.8938 111.679 68.4269 111.679C67.9601 111.679 67.5123 111.865 67.1822 112.195C66.8521 112.525 66.6666 112.973 66.6666 113.44C66.6666 113.906 66.8521 114.354 67.1822 114.684C67.5123 115.014 67.9601 115.2 68.4269 115.2Z" stroke="black" stroke-width="2"/>
<g clip-path="url(#clip0_1715_5318)">
<path d="M222.478 48.135H220.103C219.473 48.135 218.869 48.3852 218.424 48.8306C217.978 49.276 217.728 49.8801 217.728 50.51V51.4006C217.728 51.9145 217.895 52.4145 218.203 52.8256C218.511 53.2367 218.945 53.5367 219.438 53.6806L225.518 55.4548C226.011 55.5986 226.445 55.8987 226.753 56.3098C227.061 56.7209 227.228 57.2209 227.228 57.7348V60.01C227.228 60.6399 226.978 61.244 226.532 61.6894C226.087 62.1348 225.483 62.385 224.853 62.385H222.478M222.478 48.135H224.853C225.483 48.135 226.087 48.3852 226.532 48.8306C226.978 49.276 227.228 49.8801 227.228 50.51V51.6975M222.478 48.135V44.5725M222.478 62.385H220.103C219.473 62.385 218.869 62.1348 218.424 61.6894C217.978 61.244 217.728 60.6399 217.728 60.01V58.8225M222.478 62.385V65.9475M196.353 33.885H224.853C229.892 33.885 234.725 35.8868 238.288 39.45C241.851 43.0132 243.853 47.8459 243.853 52.885M196.353 33.885C197.327 33.885 198.704 33.2984 199.702 32.6904C201.028 31.8672 202.2 30.8182 203.164 29.591C203.92 28.641 204.665 27.5153 204.665 26.76M196.353 33.885C197.327 33.885 198.704 34.4716 199.702 35.0796C201.028 35.9031 202.2 36.952 203.164 38.179C203.92 39.129 204.665 40.2548 204.665 41.01M248.603 76.635H220.103C215.064 76.635 210.231 74.6332 206.668 71.07C203.105 67.5068 201.103 62.6741 201.103 57.635M248.603 76.635C247.629 76.635 246.252 77.2216 245.254 77.8296C243.928 78.653 242.756 79.7019 241.791 80.929C241.036 81.879 240.29 83.0048 240.29 83.76M248.603 76.635C247.629 76.635 246.252 76.0484 245.254 75.4404C243.928 74.6171 242.756 73.5681 241.791 72.341C241.036 71.391 240.29 70.2653 240.29 69.51M236.728 55.26C236.728 51.4807 235.227 47.8561 232.554 45.1837C229.882 42.5113 226.257 41.01 222.478 41.01C218.699 41.01 215.074 42.5113 212.402 45.1837C209.729 47.8561 208.228 51.4807 208.228 55.26C208.228 59.0393 209.729 62.6639 212.402 65.3363C215.074 68.0087 218.699 69.51 222.478 69.51C226.257 69.51 229.882 68.0087 232.554 65.3363C235.227 62.6639 236.728 59.0393 236.728 55.26Z" stroke="black" stroke-width="2"/>
</g>
<path d="M114.86 258.575L91.3467 259.897" stroke="black" stroke-width="2" stroke-linecap="round" stroke-linejoin="round"/>
<path d="M120.239 254.791L139.096 202.587L149.354 200.66" stroke="black" stroke-width="2" stroke-linecap="round" stroke-linejoin="round"/>
<path d="M123.842 244.844L80.0385 242.847L72.013 216.31L134.632 214.932L123.842 244.844Z" stroke="black" stroke-width="2" stroke-linecap="round" stroke-linejoin="round"/>
<path d="M147.312 201.197C147.42 201.601 147.646 201.964 147.961 202.239C148.275 202.515 148.664 202.691 149.079 202.746C149.493 202.8 149.915 202.731 150.29 202.546C150.665 202.361 150.977 202.069 151.186 201.707C151.396 201.344 151.493 200.928 151.465 200.51C151.437 200.093 151.285 199.693 151.029 199.361C150.731 198.973 150.308 198.7 149.832 198.589C149.355 198.478 148.855 198.536 148.416 198.753C147.978 198.969 147.628 199.331 147.426 199.777C147.225 200.223 147.185 200.725 147.312 201.197Z" stroke="black" stroke-width="2" stroke-linecap="round" stroke-linejoin="round"/>
<path d="M122.6 258.307C122.598 257.548 122.37 256.807 121.947 256.178C121.524 255.548 120.923 255.059 120.221 254.77C119.52 254.482 118.748 254.409 118.005 254.559C117.261 254.709 116.579 255.076 116.044 255.615C115.509 256.153 115.146 256.837 115 257.582C114.854 258.326 114.932 259.097 115.225 259.797C115.517 260.497 116.01 261.095 116.642 261.514C117.274 261.934 118.017 262.157 118.775 262.155C119.793 262.152 120.768 261.745 121.486 261.024C121.841 260.667 122.122 260.243 122.314 259.776C122.505 259.31 122.602 258.811 122.6 258.307Z" fill="black"/>
<path d="M83.6874 259.663C83.6902 260.486 83.9576 261.286 84.45 261.945C84.9424 262.604 85.6338 263.088 86.4221 263.324C87.2103 263.56 88.0536 263.537 88.8275 263.257C89.6013 262.977 90.2646 262.456 90.7195 261.77C91.1744 261.084 91.3968 260.271 91.3537 259.449C91.3106 258.627 91.0045 257.841 90.4804 257.207C89.9563 256.572 89.2421 256.123 88.4433 255.926C87.6445 255.728 86.8033 255.793 86.0441 256.11C85.5786 256.304 85.1559 256.587 84.8006 256.944C84.4452 257.302 84.1642 257.726 83.9737 258.193C83.7822 258.659 83.6857 259.159 83.6874 259.663Z" fill="black"/>
<path d="M147.312 201.197C147.42 201.601 147.646 201.964 147.961 202.239C148.275 202.515 148.664 202.691 149.079 202.746C149.493 202.8 149.915 202.731 150.29 202.546C150.665 202.361 150.977 202.069 151.186 201.707C151.396 201.344 151.493 200.928 151.465 200.51C151.437 200.093 151.285 199.693 151.029 199.361C150.731 198.973 150.308 198.7 149.832 198.589C149.355 198.478 148.855 198.536 148.416 198.753C147.978 198.969 147.628 199.331 147.426 199.777C147.225 200.223 147.185 200.725 147.312 201.197Z" fill="black"/>
<defs>
<clipPath id="clip0_1715_5318">
<rect width="57" height="57" fill="white" transform="translate(193.978 26.76)"/>
</clipPath>
</defs>
</svg>
