<svg width="60" height="60" viewBox="0 0 60 60" fill="none" xmlns="http://www.w3.org/2000/svg">
<path d="M17.5347 25.1509H42.0808V31.288C42.1038 32.9143 41.8033 34.529 41.1968 36.0382C40.5903 37.5473 39.69 38.9209 38.548 40.0791C37.4061 41.2373 36.0454 42.157 34.5449 42.7847C33.0445 43.4124 31.4342 43.7357 29.8077 43.7357C28.1813 43.7357 26.571 43.4124 25.0706 42.7847C23.5701 42.157 22.2094 41.2373 21.0674 40.0791C19.9255 38.9209 19.0251 37.5473 18.4186 36.0382C17.8122 34.529 17.5117 32.9143 17.5347 31.288V25.1509Z" fill="#FEBD69" fill-opacity="0.8"/>
<path d="M17.7551 51.1714C14.0309 49.0223 10.9384 45.9303 8.78882 42.2064C6.63926 38.4825 5.50845 34.2581 5.51019 29.9583C5.51019 16.4326 16.4743 5.46851 30 5.46851C43.5257 5.46851 54.4898 16.4326 54.4898 29.9583C54.4898 43.484 43.5257 54.4481 30 54.4481V43.7044" stroke="currentColor" stroke-width="1.95918"/>
<path d="M17.5347 25.1509H42.0808V31.288C42.1038 32.9143 41.8033 34.529 41.1968 36.0382C40.5903 37.5473 39.69 38.9209 38.548 40.0791C37.4061 41.2373 36.0454 42.157 34.5449 42.7847C33.0445 43.4124 31.4342 43.7357 29.8077 43.7357C28.1813 43.7357 26.571 43.4124 25.0706 42.7847C23.5701 42.157 22.2094 41.2373 21.0674 40.0791C19.9255 38.9209 19.0251 37.5473 18.4186 36.0382C17.8122 34.529 17.5117 32.9143 17.5347 31.288V25.1509Z" stroke="currentColor" stroke-width="1.95918"/>
<path d="M23.6718 25.1509V17.4807" stroke="currentColor" stroke-width="1.95918"/>
<path d="M35.9437 25.1509V17.4807" stroke="currentColor" stroke-width="1.95918"/>
</svg>
