<svg width="88" height="23" viewBox="0 0 88 23" fill="none" xmlns="http://www.w3.org/2000/svg">
<path d="M8.092 17.632C7.60667 17.632 7.10267 17.632 6.58 17.632C6.076 17.6133 5.55333 17.5853 5.012 17.548C4.60133 19.004 4.19067 20.5253 3.78 22.112L0.42 21.888C1.46533 18.36 2.632 14.804 3.92 11.22C5.208 7.61733 6.58 4.11733 8.036 0.719999C8.72667 0.645332 9.492 0.579999 10.332 0.523999C11.1907 0.467999 12.068 0.439999 12.964 0.439999C14.1027 3.20267 15.316 6.39467 16.604 10.016C17.892 13.6373 19.2173 17.5387 20.58 21.72C19.4973 21.9067 18.4707 22.0467 17.5 22.14C16.548 22.2333 15.5773 22.28 14.588 22.28C14.196 20.712 13.7573 19.06 13.272 17.324C11.6107 17.5293 9.884 17.632 8.092 17.632ZM9.184 3.716C8.792 4.78 8.29733 6.25467 7.7 8.14C7.12133 10.0253 6.47733 12.2373 5.768 14.776C6.51467 14.8693 7.28 14.9347 8.064 14.972C8.86667 15.0093 9.72533 15.028 10.64 15.028C10.976 15.028 11.312 15.028 11.648 15.028C12.0027 15.0093 12.3293 15 12.628 15C12.2173 13.5067 11.7973 12.06 11.368 10.66C10.9573 9.24133 10.5653 7.944 10.192 6.768C9.81867 5.57333 9.48267 4.556 9.184 3.716ZM26.9349 22.14C25.7589 22.14 24.6949 21.804 23.7429 21.132C22.8096 20.46 22.0722 19.536 21.5309 18.36C20.9896 17.184 20.7189 15.8587 20.7189 14.384C20.7189 12.8533 20.9989 11.472 21.5589 10.24C22.1376 9.008 22.9122 8.028 23.8829 7.3C24.8536 6.55333 25.9269 6.18 27.1029 6.18C28.1669 6.18 29.2869 6.488 30.4629 7.104C30.4629 4.62133 30.4629 2.52133 30.4629 0.803999C30.8922 0.803999 31.3962 0.813332 31.9749 0.831999C32.5722 0.831999 33.1696 0.841332 33.7669 0.859998C34.3642 0.878666 34.8682 0.897333 35.2789 0.915999C35.2789 1.868 35.2789 3.00667 35.2789 4.332C35.2789 5.63867 35.2696 7.03867 35.2509 8.532C35.2509 10.0253 35.2416 11.5093 35.2229 12.984C35.2229 14.44 35.2136 15.8027 35.1949 17.072C35.1949 18.3413 35.1856 19.4147 35.1669 20.292C35.1669 21.1693 35.1576 21.7573 35.1389 22.056C34.3362 22.056 33.5149 22.0373 32.6749 22C31.8349 21.9813 31.1442 21.9627 30.6029 21.944C30.6029 21.7013 30.5936 21.356 30.5749 20.908C29.4176 21.7293 28.2042 22.14 26.9349 22.14ZM24.9469 13.488C24.9469 14.7013 25.0869 15.7933 25.3669 16.764C25.6656 17.716 26.0576 18.472 26.5429 19.032C27.0469 19.5733 27.6069 19.844 28.2229 19.844C29.0629 19.844 29.8376 19.3493 30.5469 18.36C30.5282 17.2587 30.5096 16.0173 30.4909 14.636C30.4909 13.236 30.4909 11.8173 30.4909 10.38C30.1736 9.764 29.7722 9.288 29.2869 8.952C28.8202 8.59733 28.3069 8.42 27.7469 8.42C26.8696 8.42 26.1789 8.868 25.6749 9.764C25.1896 10.6413 24.9469 11.8827 24.9469 13.488ZM43.668 22.14L38.068 21.944C38.068 21.1973 38.068 20.2267 38.068 19.032C38.0866 17.8373 38.096 16.5307 38.096 15.112C38.1146 13.6933 38.1333 12.2467 38.152 10.772C38.1706 9.29733 38.1893 7.90667 38.208 6.6C38.2266 5.27467 38.2453 4.11733 38.264 3.128C38.2826 2.13867 38.3013 1.42933 38.32 0.999998C39.5893 0.999998 40.9333 0.990665 42.352 0.971999C43.7706 0.953332 45.152 0.934666 46.496 0.915999C47.8586 0.878665 49.1 0.850665 50.22 0.831999C51.34 0.794666 52.236 0.757333 52.908 0.719999L52.796 3.464L43.332 3.072C43.4066 5.06933 43.4626 7.048 43.5 9.008L52.488 8.728L52.292 11.752L43.556 11.248C43.6306 15.0187 43.668 18.6493 43.668 22.14ZM61.6462 22.14C60.1715 22.14 58.8368 21.7947 57.6422 21.104C56.4475 20.4133 55.4955 19.48 54.7862 18.304C54.0955 17.128 53.7502 15.8213 53.7502 14.384C53.7502 13.2453 53.9648 12.1813 54.3942 11.192C54.8235 10.2027 55.4208 9.33467 56.1862 8.588C56.9702 7.82267 57.8662 7.23467 58.8742 6.824C59.8822 6.39467 60.9555 6.18 62.0942 6.18C63.5688 6.18 64.9035 6.52533 66.0982 7.216C67.2928 7.90667 68.2355 8.84 68.9262 10.016C69.6355 11.1733 69.9902 12.48 69.9902 13.936C69.9902 15.0747 69.7755 16.1387 69.3462 17.128C68.9168 18.1173 68.3102 18.9947 67.5262 19.76C66.7608 20.5067 65.8742 21.0947 64.8662 21.524C63.8768 21.9347 62.8035 22.14 61.6462 22.14ZM62.4582 19.872C63.4475 19.872 64.2222 19.452 64.7822 18.612C65.3422 17.7533 65.6222 16.568 65.6222 15.056C65.6222 13.7867 65.4355 12.6573 65.0622 11.668C64.6888 10.6787 64.1755 9.89467 63.5222 9.316C62.8688 8.73733 62.1222 8.448 61.2822 8.448C60.2928 8.448 59.5182 8.87733 58.9582 9.736C58.3982 10.576 58.1182 11.752 58.1182 13.264C58.1182 14.5147 58.3048 15.644 58.6782 16.652C59.0515 17.6413 59.5648 18.4253 60.2182 19.004C60.8902 19.5827 61.6368 19.872 62.4582 19.872ZM73.8927 22.084L70.8127 21.916C71.4287 21.0387 72.2313 19.9467 73.2207 18.64C74.21 17.3333 75.274 15.9613 76.4127 14.524C74.3033 11.7427 72.25 9.15733 70.2527 6.768C70.794 6.67467 71.4193 6.59067 72.1287 6.516C72.8567 6.42267 73.5753 6.348 74.2847 6.292C74.994 6.21733 75.5727 6.17067 76.0207 6.152C76.4873 6.712 77.0193 7.384 77.6167 8.168C78.214 8.952 78.8487 9.78267 79.5207 10.66C80.174 9.85733 80.8087 9.08267 81.4247 8.336C82.0407 7.58933 82.6193 6.908 83.1607 6.292L86.4927 6.628C85.802 7.39333 84.99 8.32667 84.0567 9.428C83.142 10.5293 82.1807 11.6867 81.1727 12.9C82.05 14.1133 82.8993 15.308 83.7207 16.484C84.5607 17.6413 85.298 18.6867 85.9327 19.62C86.5673 20.5533 87.034 21.272 87.3327 21.776C86.586 21.9067 85.7273 22.0093 84.7567 22.084C83.8047 22.1773 82.8993 22.224 82.0407 22.224C81.4247 21.328 80.7807 20.4227 80.1087 19.508C79.4553 18.5747 78.7833 17.6507 78.0927 16.736C77.29 17.7067 76.5247 18.6587 75.7967 19.592C75.0873 20.5067 74.4527 21.3373 73.8927 22.084Z" fill="black"/>
</svg>
