<svg width="24" height="24" viewBox="0 0 24 24" fill="none" xmlns="http://www.w3.org/2000/svg">
<path d="M11.0003 2.75L6.00027 7.75C4.84283 8.90765 4.04498 10.3754 3.70292 11.9763C3.36087 13.5772 3.48921 15.2428 4.07247 16.7724C4.65574 18.302 5.66902 19.6302 6.99015 20.5969C8.31127 21.5636 9.88383 22.1274 11.5182 22.2205C13.1526 22.3136 14.779 21.9319 16.2013 21.1215C17.6236 20.311 18.7812 19.1064 19.5343 17.653C20.2875 16.1995 20.6041 14.5592 20.446 12.9298C20.2879 11.3004 19.6618 9.75157 18.6433 8.47C18.0097 9.08834 17.2078 9.50605 16.338 9.67085C15.4681 9.83566 14.569 9.74022 13.7531 9.3965C12.9373 9.05278 12.2409 8.47604 11.7513 7.73848C11.2616 7.00092 11.0004 6.13531 11.0003 5.25V2.75Z" fill="#FEBD69"/>
<path d="M11.0003 2.75L6.00027 7.75C4.84283 8.90765 4.04498 10.3754 3.70292 11.9763C3.36087 13.5772 3.48921 15.2428 4.07247 16.7724C4.65574 18.302 5.66902 19.6302 6.99015 20.5969C8.31127 21.5636 9.88383 22.1274 11.5182 22.2205C13.1526 22.3136 14.779 21.9319 16.2013 21.1215C17.6236 20.311 18.7812 19.1064 19.5343 17.653C20.2875 16.1995 20.6041 14.5592 20.446 12.9298C20.2879 11.3004 19.6618 9.75157 18.6433 8.47C18.0097 9.08834 17.2078 9.50605 16.338 9.67085C15.4681 9.83566 14.569 9.74022 13.7531 9.3965C12.9373 9.05278 12.2409 8.47604 11.7513 7.73848C11.2616 7.00092 11.0004 6.13531 11.0003 5.25V2.75Z" stroke="black"/>
<path d="M8.5 18L14.5 12" stroke="black"/>
<path d="M8.75 12.5L9 12.25L9.25 12.5L9 12.75L8.75 12.5Z" stroke="black"/>
<path d="M13.75 17.5L14 17.25L14.25 17.5L14 17.75L13.75 17.5Z" stroke="black"/>
</svg>
