<svg width="50" height="50" viewBox="0 0 50 50" fill="none" xmlns="http://www.w3.org/2000/svg">
<path d="M4.16663 24.9998C4.16663 30.5252 6.36156 35.8242 10.2686 39.7312C14.1756 43.6382 19.4746 45.8332 25 45.8332C30.5253 45.8332 35.8243 43.6382 39.7313 39.7312C43.6384 35.8242 45.8333 30.5252 45.8333 24.9998C45.8333 19.4745 43.6384 14.1755 39.7313 10.2684C35.8243 6.36144 30.5253 4.1665 25 4.1665C19.4746 4.1665 14.1756 6.36144 10.2686 10.2684C6.36156 14.1755 4.16663 19.4745 4.16663 24.9998Z" fill="#FEBD69"/>
<path d="M4.16663 24.9998C4.16663 30.5252 6.36156 35.8242 10.2686 39.7312C14.1756 43.6382 19.4746 45.8332 25 45.8332C30.5253 45.8332 35.8243 43.6382 39.7313 39.7312C43.6384 35.8242 45.8333 30.5252 45.8333 24.9998C45.8333 19.4745 43.6384 14.1755 39.7313 10.2684C35.8243 6.36144 30.5253 4.1665 25 4.1665C19.4746 4.1665 14.1756 6.36144 10.2686 10.2684C6.36156 14.1755 4.16663 19.4745 4.16663 24.9998Z" stroke="currentColor" stroke-width="1.5"/>
<path d="M15.1041 26.5625L22.3958 32.8125L34.8958 17.1875" stroke="currentColor" stroke-width="1.5"/>
</svg>
