<svg width="30" height="29" viewBox="0 0 30 29" fill="none" xmlns="http://www.w3.org/2000/svg">
<rect x="0.5" y="0.5" width="28.9062" height="28" stroke="black"/>
<rect x="0.453125" y="0.453125" width="29" height="4.53125" fill="black"/>
<circle cx="2.49219" cy="2.49219" r="0.679688" fill="black" fill-opacity="0.5"/>
<circle cx="4.75781" cy="2.49219" r="0.679688" fill="black" fill-opacity="0.5"/>
<circle cx="7.02344" cy="2.49219" r="0.679688" fill="black" fill-opacity="0.5"/>
<g clip-path="url(#clip0_1855_3740)">
<path d="M14.5 23.8291C16.4438 23.8291 18.308 23.0569 19.6824 21.6824C21.0569 20.308 21.8291 18.4438 21.8291 16.5C21.8291 14.5562 21.0569 12.692 19.6824 11.3175C18.308 9.94307 16.4438 9.1709 14.5 9.1709C12.5562 9.1709 10.692 9.94307 9.31754 11.3175C7.94307 12.692 7.1709 14.5562 7.1709 16.5C7.1709 18.4438 7.94307 20.308 9.31754 21.6824C10.692 23.0569 12.5562 23.8291 14.5 23.8291Z" fill="#FEBD69" fill-opacity="0.8"/>
<path d="M14.5 23.8291C16.4438 23.8291 18.308 23.0569 19.6824 21.6824C21.0569 20.308 21.8291 18.4438 21.8291 16.5C21.8291 14.5562 21.0569 12.692 19.6824 11.3175C18.308 9.94307 16.4438 9.1709 14.5 9.1709C12.5562 9.1709 10.692 9.94307 9.31754 11.3175C7.94307 12.692 7.1709 14.5562 7.1709 16.5C7.1709 18.4438 7.94307 20.308 9.31754 21.6824C10.692 23.0569 12.5562 23.8291 14.5 23.8291Z" stroke="black" stroke-linecap="round" stroke-linejoin="round"/>
<path d="M7.1709 16.5H21.8291" stroke="black" stroke-linecap="round" stroke-linejoin="round"/>
<path d="M17.3189 16.5C17.1804 19.1802 16.1933 21.7469 14.5 23.8291C12.8068 21.7469 11.8196 19.1802 11.6812 16.5C11.8196 13.8198 12.8068 11.2531 14.5 9.1709C16.1933 11.2531 17.1804 13.8198 17.3189 16.5Z" stroke="black" stroke-linecap="round" stroke-linejoin="round"/>
</g>
<defs>
<clipPath id="clip0_1855_3740">
<rect width="17" height="17" fill="white" transform="translate(6 8)"/>
</clipPath>
</defs>
</svg>
