<svg xmlns="http://www.w3.org/2000/svg" fill="none" viewBox="0 0 24 24" stroke-width="1.5" height="24" width="24"><g id="bag-dollar--bag-payment-cash-money-finance"><path id="Vector 1751" stroke="currentColor" d="m3 13 6-7-3-4.5h12L15 6l6 7v4a5 5 0 0 1-5 5H8a5 5 0 0 1-5-5v-4Z"></path><path id="Vector 1752" stroke="currentColor" d="M9 6h6"></path><path id="Vector 2947" stroke="currentColor" d="M12 11.5v-2"></path><path id="Vector 2948" stroke="currentColor" d="M12 19.5v-2"></path><path id="Vector 3037" stroke="currentColor" d="M14.25 13v-.5a1 1 0 0 0-1-1h-2.5a1 1 0 0 0-1 1v.448a1 1 0 0 0 .783.976l2.933.652a1 1 0 0 1 .784.976v.948a1 1 0 0 1-1 1h-2.5a1 1 0 0 1-1-1V16"></path></g></svg>
