<svg width="31" height="31" viewBox="0 0 31 31" fill="none" xmlns="http://www.w3.org/2000/svg">
<path d="M1 15.5833C1 19.4511 2.53645 23.1604 5.27136 25.8953C8.00626 28.6302 11.7156 30.1667 15.5833 30.1667C19.4511 30.1667 23.1604 28.6302 25.8953 25.8953C28.6302 23.1604 30.1667 19.4511 30.1667 15.5833C30.1667 11.7156 28.6302 8.00626 25.8953 5.27136C23.1604 2.53645 19.4511 1 15.5833 1C11.7156 1 8.00626 2.53645 5.27136 5.27136C2.53645 8.00626 1 11.7156 1 15.5833Z" stroke="currentColor" stroke-width="1.5"/>
<path d="M11.75 22.5V16.5H9.875V13.5H11.75V10.5C11.75 9.70435 12.0661 8.94129 12.6287 8.37868C13.1913 7.81607 13.9544 7.5 14.75 7.5H18.875V11.25H15.5V13.5H17.375V16.5H15.5V22.5H11.75Z" stroke="currentColor" stroke-width="1.5"/>
</svg>
