<svg width="24" height="24" viewBox="0 0 24 24" fill="none" xmlns="http://www.w3.org/2000/svg">
<g clip-path="url(#clip0_473_6152)">
<path d="M5.07977 12H1.25977" stroke="currentColor" stroke-width="1.5" stroke-linecap="round" stroke-linejoin="round"/>
<path d="M22.7379 12H10.0059" stroke="currentColor" stroke-width="1.5" stroke-linecap="round" stroke-linejoin="round"/>
<path d="M13.9942 20.1172H1.26123" stroke="currentColor" stroke-width="1.5" stroke-linecap="round" stroke-linejoin="round"/>
<path d="M22.7379 20.1172H18.9199" stroke="currentColor" stroke-width="1.5" stroke-linecap="round" stroke-linejoin="round"/>
<path d="M13.9942 4.02295H1.26123" stroke="currentColor" stroke-width="1.5" stroke-linecap="round" stroke-linejoin="round"/>
<path d="M22.7379 4.02295H18.9199" stroke="currentColor" stroke-width="1.5" stroke-linecap="round" stroke-linejoin="round"/>
<path d="M5.08008 12.0021C5.08008 12.3255 5.14379 12.6458 5.26756 12.9446C5.39134 13.2434 5.57276 13.515 5.80147 13.7437C6.03018 13.9724 6.3017 14.1538 6.60053 14.2776C6.89935 14.4014 7.21963 14.4651 7.54308 14.4651C7.86652 14.4651 8.1868 14.4014 8.48563 14.2776C8.78445 14.1538 9.05597 13.9724 9.28468 13.7437C9.51339 13.515 9.69482 13.2434 9.81859 12.9446C9.94237 12.6458 10.0061 12.3255 10.0061 12.0021C10.0061 11.6786 9.94237 11.3583 9.81859 11.0595C9.69482 10.7607 9.51339 10.4892 9.28468 10.2605C9.05597 10.0317 8.78445 9.85032 8.48563 9.72655C8.1868 9.60277 7.86652 9.53906 7.54308 9.53906C7.21963 9.53906 6.89935 9.60277 6.60053 9.72655C6.3017 9.85032 6.03018 10.0317 5.80147 10.2605C5.57276 10.4892 5.39134 10.7607 5.26756 11.0595C5.14379 11.3583 5.08008 11.6786 5.08008 12.0021Z" stroke="currentColor" stroke-width="1.5"/>
<path d="M13.9941 20.1188C13.9941 20.772 14.2536 21.3985 14.7155 21.8604C15.1774 22.3223 15.8039 22.5818 16.4571 22.5818C17.1104 22.5818 17.7368 22.3223 18.1987 21.8604C18.6606 21.3985 18.9201 20.772 18.9201 20.1188C18.9201 19.4655 18.6606 18.8391 18.1987 18.3772C17.7368 17.9153 17.1104 17.6558 16.4571 17.6558C15.8039 17.6558 15.1774 17.9153 14.7155 18.3772C14.2536 18.8391 13.9941 19.4655 13.9941 20.1188Z" stroke="currentColor" stroke-width="1.5"/>
<path d="M13.9941 3.88487C13.9941 4.5381 14.2536 5.16458 14.7155 5.62648C15.1774 6.08838 15.8039 6.34788 16.4571 6.34788C17.1104 6.34788 17.7368 6.08838 18.1987 5.62648C18.6606 5.16458 18.9201 4.5381 18.9201 3.88487C18.9201 3.23165 18.6606 2.60517 18.1987 2.14327C17.7368 1.68137 17.1104 1.42188 16.4571 1.42188C15.8039 1.42188 15.1774 1.68137 14.7155 2.14327C14.2536 2.60517 13.9941 3.23165 13.9941 3.88487Z" stroke="currentColor" stroke-width="1.5"/>
</g>
<defs>
<clipPath id="clip0_473_6152">
<rect width="24" height="24" fill="white"/>
</clipPath>
</defs>
</svg>
