<svg width="22" height="22" viewBox="0 0 22 22" fill="none" xmlns="http://www.w3.org/2000/svg">
<path d="M21 11C21 10.662 20.983 10.329 20.95 10H13V13.5H16.456C15.9412 14.6232 15.0922 15.5602 14.025 16.1828C12.9578 16.8054 11.7244 17.0833 10.4932 16.9787C9.26211 16.874 8.09332 16.3918 7.14652 15.5979C6.19973 14.8041 5.5211 13.7373 5.20335 12.5433C4.88559 11.3493 4.9442 10.0863 5.37118 8.92683C5.79815 7.76739 6.57266 6.76802 7.58891 6.06527C8.60516 5.36251 9.81359 4.99064 11.0491 5.00043C12.2846 5.01023 13.487 5.40123 14.492 6.12001L17.178 3.13601C15.4177 1.74906 13.241 0.99648 11 1.00001C5.477 1.00001 1 5.47701 1 11C1 16.523 5.477 21 11 21C16.523 21 21 16.523 21 11Z" stroke="white" stroke-width="1.5"/>
</svg>
