<svg width="35" height="35" viewBox="0 0 35 35" fill="none" xmlns="http://www.w3.org/2000/svg">
<path d="M2.91699 17.5001C2.91699 21.3678 4.45345 25.0771 7.18835 27.8121C9.92326 30.547 13.6326 32.0834 17.5003 32.0834C21.3681 32.0834 25.0774 30.547 27.8123 27.8121C30.5472 25.0771 32.0837 21.3678 32.0837 17.5001C32.0837 13.6323 30.5472 9.92301 27.8123 7.18811C25.0774 4.4532 21.3681 2.91675 17.5003 2.91675C13.6326 2.91675 9.92326 4.4532 7.18835 7.18811C4.45345 9.92301 2.91699 13.6323 2.91699 17.5001Z" stroke="currentColor" stroke-width="1.5"/>
<path d="M16.0424 12.3959L17.5008 13.8542L18.9591 12.3959C19.3421 12.0128 19.7968 11.709 20.2973 11.5017C20.7977 11.2944 21.3341 11.1877 21.8758 11.1877C22.4174 11.1877 22.9538 11.2944 23.4543 11.5017C23.9547 11.709 24.4094 12.0128 24.7924 12.3959C25.1755 12.7789 25.4793 13.2336 25.6866 13.734C25.8939 14.2345 26.0006 14.7709 26.0006 15.3125C26.0006 15.8542 25.8939 16.3906 25.6866 16.891C25.4793 17.3915 25.1755 17.8462 24.7924 18.2292L17.5008 25.5209L10.2091 18.2292C9.43555 17.4557 9.00098 16.4065 9.00098 15.3125C9.00098 14.7709 9.10767 14.2345 9.31496 13.734C9.52225 13.2336 9.82608 12.7789 10.2091 12.3959C10.5921 12.0128 11.0468 11.709 11.5473 11.5017C12.0477 11.2944 12.5841 11.1877 13.1258 11.1877C14.2197 11.1877 15.2689 11.6223 16.0424 12.3959Z" stroke="currentColor" stroke-width="1.5"/>
</svg>
