<svg width="35" height="35" viewBox="0 0 35 35" fill="none" xmlns="http://www.w3.org/2000/svg">
<path d="M2.91666 16.9166C2.91666 20.6297 4.39165 24.1906 7.01716 26.8161C9.64267 29.4416 13.2036 30.9166 16.9167 30.9166C20.6297 30.9166 24.1906 29.4416 26.8162 26.8161C29.4417 24.1906 30.9167 20.6297 30.9167 16.9166C30.9167 13.2036 29.4417 9.64264 26.8162 7.01713C24.1906 4.39162 20.6297 2.91663 16.9167 2.91663C13.2036 2.91663 9.64267 4.39162 7.01716 7.01713C4.39165 9.64264 2.91666 13.2036 2.91666 16.9166Z" fill="white" stroke="currentColor"/>
<path d="M15.5166 12.0166L16.9166 13.4166L18.3166 12.0166C18.6843 11.6489 19.1208 11.3572 19.6013 11.1582C20.0817 10.9592 20.5966 10.8568 21.1166 10.8568C21.6366 10.8568 22.1515 10.9592 22.632 11.1582C23.1124 11.3572 23.5489 11.6489 23.9166 12.0166C24.2843 12.3843 24.576 12.8208 24.775 13.3013C24.974 13.7817 25.0764 14.2966 25.0764 14.8166C25.0764 15.3366 24.974 15.8515 24.775 16.332C24.576 16.8124 24.2843 17.2489 23.9166 17.6166L16.9166 24.6166L9.9166 17.6166C9.174 16.874 8.75681 15.8668 8.75681 14.8166C8.75681 14.2966 8.85923 13.7817 9.05823 13.3013C9.25723 12.8208 9.5489 12.3843 9.9166 12.0166C10.2843 11.6489 10.7208 11.3572 11.2013 11.1582C11.6817 10.9592 12.1966 10.8568 12.7166 10.8568C13.7668 10.8568 14.774 11.274 15.5166 12.0166Z" stroke="currentColor" stroke-width="1.5"/>
</svg>
