<svg width="24" height="24" viewBox="0 0 24 24" fill="none" xmlns="http://www.w3.org/2000/svg">
<path d="M6.331 17.116C4.526 17.654 3.39 18.437 3.39 19.308C3.39 20.933 7.34 22.25 12.215 22.25C17.089 22.25 21.04 20.933 21.04 19.308C21.04 18.437 19.903 17.654 18.098 17.116" stroke="currentColor" stroke-width="1.5"/>
<path d="M12.215 19.385C12.215 19.385 19.429 13.974 19.429 9.149C19.429 5.406 16.724 2.25 12.215 2.25C7.705 2.25 5 5.406 5 9.149C5 13.974 12.215 19.385 12.215 19.385Z" stroke="currentColor" stroke-width="1.5"/>
<path d="M10.5 6.88H14V10.38H10.5V6.88Z" stroke="currentColor" stroke-width="1.5"/>
</svg>
