<svg xmlns="http://www.w3.org/2000/svg" fill="none" viewBox="-0.5 -0.5 14 14" height="14" width="14"><g id="threat-browser-1--bug-browser-file-threat-danger-internet"><path id="Vector" stroke="currentColor" stroke-linecap="round" stroke-linejoin="round" d="M3.7142857142857144 11.607142857142858H1.3928571428571428c-0.2462757142857143 0 -0.48245785714285716 -0.09787142857142857 -0.6565993571428572 -0.27197857142857146C0.5621172142857144 11.161057142857144 0.4642857142857143 10.924828571428572 0.4642857142857143 10.678571428571429v-9.285714285714286c0 -0.2462757142857143 0.09783150000000002 -0.48245785714285716 0.27197207142857144 -0.6565993571428572C0.9103992857142857 0.5621172142857144 1.1465814285714286 0.4642857142857143 1.3928571428571428 0.4642857142857143h10.214285714285715c0.24625714285714287 0 0.48248571428571424 0.09783150000000002 0.6565928571428571 0.27197207142857144 0.17410714285714285 0.1741415 0.27197857142857146 0.41032364285714285 0.27197857142857146 0.6565993571428572v5.571428571428571" stroke-width="1"></path><path id="Vector_2" stroke="currentColor" stroke-linecap="round" stroke-linejoin="round" d="M0.4642857142857143 3.25h12.071428571428571" stroke-width="1"></path><path id="Vector_3" stroke="currentColor" stroke-linecap="round" stroke-linejoin="round" d="M12.461428571428572 11.709378571428571c0.04559285714285714 0.08412857142857143 0.06936428571428573 0.1782857142857143 0.06936428571428573 0.2739285714285714 0 0.09573571428571429 -0.023771428571428572 0.1898 -0.06936428571428573 0.2739285714285714 -0.04271428571428571 0.08394285714285714 -0.1079 0.15432857142857143 -0.18822142857142857 0.20345 -0.08022857142857144 0.04921428571428572 -0.1726214285714286 0.07521428571428572 -0.2667785714285714 0.07512142857142858H6.555751428571429c-0.09414785714285714 0.00009285714285714286 -0.18646642857142856 -0.025907142857142858 -0.2667692857142857 -0.07512142857142858 -0.08029357142857144 -0.04912142857142857 -0.14543285714285717 -0.11950714285714287 -0.1882307142857143 -0.20345 -0.04550928571428572 -0.08412857142857143 -0.06934571428571429 -0.17819285714285713 -0.06934571428571429 -0.2739285714285714 0 -0.09564285714285714 0.02383642857142857 -0.1898 0.06934571428571429 -0.2739285714285714l2.7392857142857143 -4.9399628571428575c0.037634999999999995 -0.09225357142857142 0.10189214285714286 -0.1712007142857143 0.18459071428571427 -0.22677571428571427 0.08268928571428572 -0.055575 0.18005928571428573 -0.08526142857142857 0.2796578571428571 -0.08526142857142857 0.0996357142857143 0 0.19704285714285716 0.029686428571428572 0.27977857142857143 0.08526142857142857 0.08264285714285714 0.055575 0.1469 0.13452214285714287 0.18450714285714284 0.22677571428571427l2.692857142857143 4.9399628571428575Z" stroke-width="1"></path><path id="Vector_4" stroke="currentColor" stroke-linecap="round" stroke-linejoin="round" d="M9.285714285714286 9.75v-0.9285714285714286" stroke-width="1"></path><g id="Group 4488"><path id="Ellipse 81" stroke="currentColor" stroke-linecap="round" stroke-linejoin="round" d="M9.281145714285714 11.259114285714286c-0.06414571428571429 0 -0.11614571428571428 -0.052000000000000005 -0.11614571428571428 -0.1161642857142857s0.052000000000000005 -0.1161642857142857 0.11614571428571428 -0.1161642857142857" stroke-width="1"></path><path id="Ellipse 82" stroke="currentColor" stroke-linecap="round" stroke-linejoin="round" d="M9.280950714285716 11.259114285714286c0.06419214285714285 0 0.11619214285714285 -0.052000000000000005 0.11619214285714285 -0.1161642857142857s-0.052000000000000005 -0.1161642857142857 -0.11619214285714285 -0.1161642857142857" stroke-width="1"></path></g></g></svg>
