<svg width="40" height="40" viewBox="0 0 40 40" fill="currentColor" xmlns="http://www.w3.org/2000/svg">
<path d="M21.3585 20.3283L8.80513 22.4216C8.66081 22.4457 8.52537 22.5074 8.41244 22.6004C8.29951 22.6935 8.21306 22.8146 8.1618 22.9516L3.83347 34.5466C3.42013 35.6133 4.53513 36.63 5.55847 36.1183L35.5585 21.1183C35.7663 21.0146 35.941 20.855 36.0632 20.6574C36.1853 20.4599 36.25 20.2322 36.25 20C36.25 19.7677 36.1853 19.5401 36.0632 19.3425C35.941 19.145 35.7663 18.9854 35.5585 18.8816L5.55847 3.88164C4.53513 3.36998 3.42013 4.38831 3.83347 5.45331L8.16347 17.0483C8.21449 17.1857 8.30083 17.3071 8.41378 17.4005C8.52673 17.4938 8.66229 17.5557 8.8068 17.58L21.3601 19.6716C21.4374 19.6852 21.5074 19.7255 21.5578 19.7856C21.6083 19.8456 21.6359 19.9215 21.6359 20C21.6359 20.0784 21.6083 20.1543 21.5578 20.2144C21.5074 20.2744 21.4374 20.3148 21.3601 20.3283H21.3585Z" fill="currentColor"/>
</svg>
