<svg xmlns="http://www.w3.org/2000/svg" fill="none" viewBox="-0.5 -0.5 14 14" height="14" width="14">
    <g id="share-link--share-transmit">
        <path id="Vector" stroke="currentColor" stroke-linecap="round" stroke-linejoin="round" d="M2.553571428571429 8.589285714285715C3.707451428571429 8.589285714285715 4.642857142857143 7.65388 4.642857142857143 6.5S3.707451428571429 4.410714285714286 2.553571428571429 4.410714285714286 0.4642857142857143 5.34612 0.4642857142857143 6.5s0.9354057142857144 2.0892857142857144 2.0892857142857144 2.0892857142857144Z" stroke-width="1"></path><path id="Vector_2" stroke="currentColor" stroke-linecap="round" stroke-linejoin="round" d="M10.446428571428571 12.535714285714286c1.1538428571428572 0 2.0892857142857144 -0.9354428571428572 2.0892857142857144 -2.0892857142857144S11.600271428571428 8.357142857142858 10.446428571428571 8.357142857142858 8.357142857142858 9.292585714285716 8.357142857142858 10.446428571428571s0.9354428571428572 2.0892857142857144 2.0892857142857144 2.0892857142857144Z" stroke-width="1"></path>
        <path id="Vector_3" stroke="currentColor" stroke-linecap="round" stroke-linejoin="round" d="M10.446428571428571 4.642857142857143c1.1538428571428572 0 2.0892857142857144 -0.9354057142857144 2.0892857142857144 -2.0892857142857144S11.600271428571428 0.4642857142857143 10.446428571428571 0.4642857142857143 8.357142857142858 1.3996914285714286 8.357142857142858 2.553571428571429 9.292585714285716 4.642857142857143 10.446428571428571 4.642857142857143Z" stroke-width="1"></path><path id="Vector_4" stroke="currentColor" stroke-linecap="round" stroke-linejoin="round" d="m4.420009285714286 5.571428571428571 4.16 -2.0892857142857144" stroke-width="1"></path><path id="Vector_5" stroke="currentColor" stroke-linecap="round" stroke-linejoin="round" d="m4.420009285714286 7.428571428571429 4.16 2.0892857142857144" stroke-width="1"></path>
    </g>
</svg>
