<svg width="31" height="31" viewBox="0 0 31 31" fill="none" xmlns="http://www.w3.org/2000/svg">
<path d="M1 15.5833C1 19.4511 2.53645 23.1604 5.27136 25.8953C8.00626 28.6302 11.7156 30.1667 15.5833 30.1667C19.4511 30.1667 23.1604 28.6302 25.8953 25.8953C28.6302 23.1604 30.1667 19.4511 30.1667 15.5833C30.1667 11.7156 28.6302 8.00626 25.8953 5.27136C23.1604 2.53645 19.4511 1 15.5833 1C11.7156 1 8.00626 2.53645 5.27136 5.27136C2.53645 8.00626 1 11.7156 1 15.5833Z" stroke="currentColor" stroke-width="1.5"/>
<path d="M17.0003 13.75L12.0003 9.25C11.4531 9.74245 11.0191 10.3271 10.723 10.9705C10.4268 11.6139 10.2744 12.3036 10.2744 13C10.2744 13.6964 10.4268 14.3861 10.723 15.0295C11.0191 15.6729 11.4531 16.2575 12.0003 16.75L12.8337 17.5L10.3337 19.75L10.542 19.9375C11.2244 20.5593 12.0368 21.0534 12.9322 21.3916C13.8277 21.7297 14.7886 21.9052 15.7597 21.9079C16.7307 21.9106 17.6928 21.7404 18.5906 21.4072C19.4883 21.0739 20.3039 20.5842 20.9906 19.9663C21.6773 19.3483 22.2214 18.6142 22.5916 17.8062C22.9619 16.9982 23.1509 16.1324 23.148 15.2584C23.145 14.3844 22.95 13.5196 22.5743 12.7137C22.1986 11.9078 21.6495 11.1767 20.9587 10.5625L20.7503 10.375L17.0003 13.75Z" stroke="currentColor" stroke-width="1.5"/>
<path d="M10.3333 19.75L8.25 21.625" stroke="currentColor" stroke-width="1.5"/>
<path d="M22.417 12.625H26.167" stroke="currentColor" stroke-width="1.5"/>
</svg>
