<svg xmlns="http://www.w3.org/2000/svg" fill="none" viewBox="0 0 24 24" height="24" width="24"><path fill="currentColor" fill-rule="evenodd" d="M5 1a4 4 0 0 0-4 4v14a4 4 0 0 0 4 4h14a4 4 0 0 0 4-4V5a4 4 0 0 0-4-4H5Zm13.476 8.421c.097 3.982-3.118 12.045-14.476 7.637 1.506 0 3.962-.551 4.571-1.16-.888-.127-2.666-.762-2.666-2.286h1.524a16.482 16.482 0 0 0-.079-.04c-.806-.4-2.588-1.285-2.588-3.389.38.381 1.004.537 1.524.381-.78-.678-2.513-2.617-1.143-4.571 1.143 1.27 4.038 3.81 6.476 3.81-.38-1.017 0-3.048 1.905-3.81s3.267-.087 3.81.762c.664-.053 1.26-.396 1.666-.629.089-.051.169-.097.238-.133l0 .075c.002.545.005 1.296-.78 1.83.382.286.78.4 1.542 0 0 .644-.601 1.272-1.524 1.523Z" clip-rule="evenodd"></path></svg>