<svg xmlns="http://www.w3.org/2000/svg" fill="none" viewBox="-0.75 -0.75 24 24" height="24" width="24">
    <g id="user-feedback-heart">
    <path id="Vector 1260" stroke="currentColor" d="m10.938749999999999 8.4309375 0.31125 0.31312500000000004 0.31125 -0.31312500000000004a2.2865625 2.2865625 0 0 1 3.2446875 3.223125L11.25 15.232500000000002 7.694062500000001 11.653125a2.2865625 2.2865625 0 0 1 3.2446875 -3.223125Z" stroke-width="1.5"></path>
    <path id="Ellipse 1099" stroke="currentColor" d="M18.28125 5.0484374999999995A9.352500000000001 9.352500000000001 0 0 0 11.25 1.875C6.0721875 1.875 1.875 6.0721875 1.875 11.25c0 0.9796874999999999 0.15 1.9246874999999999 0.429375 2.8125" stroke-width="1.5"></path>
    <path id="Ellipse 1100" stroke="currentColor" d="M4.21875 17.451562499999998A9.352500000000001 9.352500000000001 0 0 0 11.25 20.625c5.1778125 0 9.375 -4.1971875 9.375 -9.375a9.356250000000001 9.356250000000001 0 0 0 -0.429375 -2.8125" stroke-width="1.5"></path>
    <path id="Vector 2755" stroke="currentColor" d="M18.28125 1.40625v3.75h-3.75" stroke-width="1.5"></path>
    <path id="Vector 2754" stroke="currentColor" d="M4.21875 21.09375v-3.75h3.75" stroke-width="1.5"></path>
    </g>
</svg>
