<svg width="60" height="60" viewBox="0 0 60 60" fill="none" xmlns="http://www.w3.org/2000/svg">
<path d="M37.3469 41.0204C37.3469 43.2937 38.25 45.4739 39.8575 47.0813C41.4649 48.6888 43.6451 49.5918 45.9184 49.5918C48.1917 49.5918 50.3718 48.6888 51.9793 47.0813C53.5867 45.4739 54.4898 43.2937 54.4898 41.0204C54.4898 38.7471 53.5867 36.5669 51.9793 34.9595C50.3718 33.352 48.1917 32.449 45.9184 32.449C43.6451 32.449 41.4649 33.352 39.8575 34.9595C38.25 36.5669 37.3469 38.7471 37.3469 41.0204Z" fill="#FEBD69" fill-opacity="0.8"/>
<path d="M5.5102 41.0204C5.5102 42.146 5.73191 43.2606 6.16266 44.3005C6.59342 45.3405 7.22478 46.2854 8.02071 47.0813C8.81664 47.8773 9.76155 48.5086 10.8015 48.9394C11.8414 49.3701 12.956 49.5918 14.0816 49.5918C15.2072 49.5918 16.3218 49.3701 17.3618 48.9394C18.4017 48.5086 19.3466 47.8773 20.1425 47.0813C20.9385 46.2854 21.5698 45.3405 22.0006 44.3005C22.4314 43.2606 22.6531 42.146 22.6531 41.0204C22.6531 39.8948 22.4314 38.7802 22.0006 37.7403C21.5698 36.7003 20.9385 35.7554 20.1425 34.9595C19.3466 34.1636 18.4017 33.5322 17.3618 33.1014C16.3218 32.6707 15.2072 32.449 14.0816 32.449C12.956 32.449 11.8414 32.6707 10.8015 33.1014C9.76155 33.5322 8.81664 34.1636 8.02071 34.9595C7.22478 35.7554 6.59342 36.7003 6.16266 37.7403C5.73191 38.7802 5.5102 39.8948 5.5102 41.0204Z" fill="#FEBD69" fill-opacity="0.8"/>
<path d="M37.3469 41.0204C37.3469 43.2937 38.25 45.4739 39.8575 47.0813C41.4649 48.6888 43.6451 49.5918 45.9184 49.5918C48.1917 49.5918 50.3718 48.6888 51.9793 47.0813C53.5867 45.4739 54.4898 43.2937 54.4898 41.0204C54.4898 38.7471 53.5867 36.5669 51.9793 34.9595C50.3718 33.352 48.1917 32.449 45.9184 32.449C43.6451 32.449 41.4649 33.352 39.8575 34.9595C38.25 36.5669 37.3469 38.7471 37.3469 41.0204Z" stroke="black" stroke-width="1.95918"/>
<path d="M5.5102 41.0204C5.5102 42.146 5.73191 43.2606 6.16266 44.3005C6.59342 45.3405 7.22478 46.2854 8.02071 47.0813C8.81664 47.8773 9.76155 48.5086 10.8015 48.9394C11.8414 49.3701 12.956 49.5918 14.0816 49.5918C15.2072 49.5918 16.3218 49.3701 17.3618 48.9394C18.4017 48.5086 19.3466 47.8773 20.1425 47.0813C20.9385 46.2854 21.5698 45.3405 22.0006 44.3005C22.4314 43.2606 22.6531 42.146 22.6531 41.0204C22.6531 39.8948 22.4314 38.7802 22.0006 37.7403C21.5698 36.7003 20.9385 35.7554 20.1425 34.9595C19.3466 34.1636 18.4017 33.5322 17.3618 33.1014C16.3218 32.6707 15.2072 32.449 14.0816 32.449C12.956 32.449 11.8414 32.6707 10.8015 33.1014C9.76155 33.5322 8.81664 34.1636 8.02071 34.9595C7.22478 35.7554 6.59342 36.7003 6.16266 37.7403C5.73191 38.7802 5.5102 39.8948 5.5102 41.0204Z" stroke="black" stroke-width="1.95918"/>
<path d="M27.551 32.4491L23.0449 21.4287" stroke="black" stroke-width="1.95918"/>
<path d="M28.7755 21.4287H17.7551" stroke="black" stroke-width="1.95918"/>
<path d="M45.9184 41.0204L37.3469 12.8572H49.5918" stroke="black" stroke-width="1.95918"/>
<path d="M12.8571 41.0204L41.0204 25.1021" stroke="black" stroke-width="1.95918"/>
</svg>
