<svg width="60" height="60" viewBox="0 0 60 60" fill="none" xmlns="http://www.w3.org/2000/svg">
<path fill-rule="evenodd" clip-rule="evenodd" d="M15.3061 5.51025H52.0408V42.2449H14.0816C12.4579 42.2449 10.9006 42.89 9.75241 44.0382C8.60422 45.1864 7.95918 46.7436 7.95918 48.3674V12.8572C7.95918 10.9087 8.73323 9.03994 10.1111 7.66212C11.4889 6.2843 13.3576 5.51025 15.3061 5.51025ZM8.06204 49.489C7.99356 49.1191 7.95913 48.7436 7.95918 48.3674V49.5919L8.06204 49.489Z" fill="#FEBD69" fill-opacity="0.8"/>
<path d="M47.2873 54.4898H14.0816C12.4579 54.4898 10.9006 53.8447 9.75241 52.6965C8.60422 51.5484 7.95918 49.9911 7.95918 48.3673C7.95918 46.7435 8.60422 45.1863 9.75241 44.0381C10.9006 42.8899 12.4579 42.2449 14.0816 42.2449H47.2873V54.4898Z" fill="white"/>
<path d="M52.0408 42.2449V5.51025H15.3061C13.3576 5.51025 11.4889 6.2843 10.1111 7.66212C8.73323 9.03994 7.95918 10.9087 7.95918 12.8572V47.1429" stroke="black" stroke-width="1.95918"/>
<path d="M53.8776 54.4898H14.0816C12.4579 54.4898 10.9006 53.8447 9.75241 52.6965C8.60422 51.5484 7.95918 49.9911 7.95918 48.3673C7.95918 46.7435 8.60422 45.1863 9.75241 44.0381C10.9006 42.8899 12.4579 42.2449 14.0816 42.2449H53.8776" stroke="black" stroke-width="1.95918"/>
<path d="M47.1429 42.2449V54.4898" stroke="black" stroke-width="1.95918"/>
</svg>
