<svg width="60" height="60" viewBox="0 0 60 60" fill="none" xmlns="http://www.w3.org/2000/svg">
<path d="M7.95917 9.18372L22.653 5.51025V6.73474C22.653 8.35852 23.2981 9.91579 24.4463 11.064C25.5944 12.2122 27.1517 12.8572 28.7755 12.8572C30.3993 12.8572 31.9565 12.2122 33.1047 11.064C34.2529 9.91579 34.8979 8.35852 34.8979 6.73474V5.51025L49.5918 9.18372L48.3673 18.9796H39.7959V31.2245H17.7551V18.9796H9.18366L7.95917 9.18372Z" fill="white"/>
<path d="M11.6326 54.4899L17.7551 31.2246H39.7959L45.9183 54.4899H11.6326Z" fill="#FEBD69" fill-opacity="0.8"/>
<path d="M7.95917 9.18372L22.653 5.51025V6.73474C22.653 8.35852 23.2981 9.91579 24.4463 11.064C25.5945 12.2122 27.1517 12.8572 28.7755 12.8572C30.3993 12.8572 31.9565 12.2122 33.1047 11.064C34.2529 9.91579 34.8979 8.35852 34.8979 6.73474V5.51025L49.5918 9.18372L48.3673 18.9796H39.7959V31.2245H17.7551V18.9796H9.18366L7.95917 9.18372Z" stroke="black" stroke-width="1.95918"/>
<path d="M11.6326 54.4899L17.7551 31.2246H39.7959L45.9183 54.4899H11.6326Z" stroke="black" stroke-width="1.95918"/>
</svg>
