<svg width="60" height="60" viewBox="0 0 60 60" fill="none" xmlns="http://www.w3.org/2000/svg">
<path d="M12.8571 5.51025V36.1225H47.1429V5.51025H12.8571Z" fill="#FEBD69" fill-opacity="0.8"/>
<path d="M12.8571 20.1062V5.51025H47.1429V20.1062" stroke="black" stroke-width="1.95918"/>
<path d="M5.5102 42.2449V26.3266C5.5102 24.7028 6.15525 23.1455 7.30343 21.9973C8.45161 20.8491 10.0089 20.2041 11.6327 20.2041C13.2564 20.2041 14.8137 20.8491 15.9619 21.9973C17.1101 23.1455 17.7551 24.7028 17.7551 26.3266V32.449H42.2449V26.3266C42.2449 24.7028 42.8899 23.1455 44.0381 21.9973C45.1863 20.8491 46.7436 20.2041 48.3673 20.2041C49.9911 20.2041 51.5484 20.8491 52.6966 21.9973C53.8448 23.1455 54.4898 24.7028 54.4898 26.3266V42.2449H5.5102Z" fill="#FEBD69" fill-opacity="0.8"/>
<path d="M5.5102 42.2449V26.3266C5.5102 24.7028 6.15525 23.1455 7.30343 21.9973C8.45161 20.8491 10.0089 20.2041 11.6327 20.2041C13.2564 20.2041 14.8137 20.8491 15.9619 21.9973C17.1101 23.1455 17.7551 24.7028 17.7551 26.3266V32.449H42.2449V26.3266C42.2449 24.7028 42.8899 23.1455 44.0381 21.9973C45.1863 20.8491 46.7436 20.2041 48.3673 20.2041C49.9911 20.2041 51.5484 20.8491 52.6966 21.9973C53.8448 23.1455 54.4898 24.7028 54.4898 26.3266V42.2449H5.5102Z" stroke="black" stroke-width="1.95918"/>
<path d="M15.3061 42.2449L11.6327 54.4898" stroke="black" stroke-width="1.95918"/>
<path d="M44.6939 42.2449L48.3673 54.4898" stroke="black" stroke-width="1.95918"/>
</svg>
