<svg width="60" height="60" viewBox="0 0 60 60" fill="none" xmlns="http://www.w3.org/2000/svg">
<path d="M5.5102 27.5511C5.5102 33.3967 7.83235 39.0028 11.9658 43.1363C16.0993 47.2697 21.7054 49.5919 27.551 49.5919C33.3966 49.5919 39.0028 47.2697 43.1362 43.1363C47.2697 39.0028 49.5918 33.3967 49.5918 27.5511C49.5918 21.7055 47.2697 16.0993 43.1362 11.9659C39.0028 7.8324 33.3966 5.51025 27.551 5.51025C21.7054 5.51025 16.0993 7.8324 11.9658 11.9659C7.83235 16.0993 5.5102 21.7055 5.5102 27.5511Z" fill="#FEBD69" fill-opacity="0.8"/>
<path d="M5.5102 27.5511C5.5102 33.3967 7.83235 39.0028 11.9658 43.1363C16.0993 47.2697 21.7054 49.5919 27.551 49.5919C33.3966 49.5919 39.0028 47.2697 43.1362 43.1363C47.2697 39.0028 49.5918 33.3967 49.5918 27.5511C49.5918 21.7055 47.2697 16.0993 43.1362 11.9659C39.0028 7.8324 33.3966 5.51025 27.551 5.51025C21.7054 5.51025 16.0993 7.8324 11.9658 11.9659C7.83235 16.0993 5.5102 21.7055 5.5102 27.5511Z" stroke="black" stroke-width="1.95918"/>
<path d="M43.4694 43.4695L55.7143 55.7144" stroke="black" stroke-width="1.95918"/>
<path d="M16.5306 21.6514H38.5714V36.3452H16.5306V21.6514Z" fill="white"/>
<path d="M16.5306 21.6514H38.5714V36.3452H16.5306V21.6514Z" stroke="black" stroke-width="1.95918"/>
<path d="M32.449 21.6515V20.427C32.449 19.128 31.9329 17.8822 31.0144 16.9636C30.0959 16.0451 28.85 15.5291 27.551 15.5291C26.252 15.5291 25.0062 16.0451 24.0876 16.9636C23.1691 17.8822 22.6531 19.128 22.6531 20.427V21.6515" stroke="black" stroke-width="1.95918"/>
</svg>
