<svg width="60" height="60" viewBox="0 0 60 60" fill="none" xmlns="http://www.w3.org/2000/svg">
<path d="M12.8571 23.8776C12.8571 25.9053 9.18367 30 9.18367 30C9.18367 30 5.5102 25.9053 5.5102 23.8776C5.5102 23.3952 5.60522 22.9175 5.78983 22.4718C5.97444 22.0261 6.24503 21.6211 6.58614 21.28C6.92725 20.9389 7.33221 20.6683 7.7779 20.4837C8.22358 20.2991 8.70127 20.2041 9.18367 20.2041C9.66608 20.2041 10.1438 20.2991 10.5894 20.4837C11.0351 20.6683 11.4401 20.9389 11.7812 21.28C12.1223 21.6211 12.3929 22.0261 12.5775 22.4718C12.7621 22.9175 12.8571 23.3952 12.8571 23.8776Z" fill="#FEBD69" fill-opacity="0.8"/>
<path d="M25.7143 12.8571C25.7143 14.8848 22.0408 18.9795 22.0408 18.9795C22.0408 18.9795 18.3673 14.8848 18.3673 12.8571C18.3673 11.8828 18.7544 10.9484 19.4433 10.2595C20.1322 9.57062 21.0666 9.18359 22.0408 9.18359C23.0151 9.18359 23.9494 9.57062 24.6384 10.2595C25.3273 10.9484 25.7143 11.8828 25.7143 12.8571Z" fill="#FEBD69" fill-opacity="0.8"/>
<path d="M54.4898 23.8776C54.4898 25.9053 50.8163 30 50.8163 30C50.8163 30 47.1429 25.9053 47.1429 23.8776C47.1429 22.9033 47.5299 21.9689 48.2188 21.28C48.9077 20.5911 49.8421 20.2041 50.8163 20.2041C51.7906 20.2041 52.725 20.5911 53.4139 21.28C54.1028 21.9689 54.4898 22.9033 54.4898 23.8776Z" fill="#FEBD69" fill-opacity="0.8"/>
<path d="M41.6327 12.8571C41.6327 14.8848 37.9592 18.9795 37.9592 18.9795C37.9592 18.9795 34.2857 14.8848 34.2857 12.8571C34.2857 11.8828 34.6727 10.9484 35.3616 10.2595C36.0506 9.57062 36.9849 9.18359 37.9592 9.18359C38.9334 9.18359 39.8678 9.57062 40.5567 10.2595C41.2456 10.9484 41.6327 11.8828 41.6327 12.8571Z" fill="#FEBD69" fill-opacity="0.8"/>
<path d="M30 27.551L16.5306 37.3469V38.5714C16.5306 42.1437 17.9497 45.5697 20.4757 48.0957C23.0017 50.6217 26.4277 52.0408 30 52.0408C33.5723 52.0408 36.9983 50.6217 39.5243 48.0957C42.0503 45.5697 43.4694 42.1437 43.4694 38.5714V37.3469L30 27.551Z" fill="#FEBD69" fill-opacity="0.8"/>
<path d="M12.8571 23.8776C12.8571 25.9053 9.18367 30 9.18367 30C9.18367 30 5.5102 25.9053 5.5102 23.8776C5.5102 23.3952 5.60522 22.9175 5.78983 22.4718C5.97444 22.0261 6.24503 21.6211 6.58614 21.28C6.92725 20.9389 7.33221 20.6683 7.7779 20.4837C8.22358 20.2991 8.70127 20.2041 9.18367 20.2041C9.66608 20.2041 10.1438 20.2991 10.5894 20.4837C11.0351 20.6683 11.4401 20.9389 11.7812 21.28C12.1223 21.6211 12.3929 22.0261 12.5775 22.4718C12.7621 22.9175 12.8571 23.3952 12.8571 23.8776Z" stroke="black" stroke-width="1.95918"/>
<path d="M25.7143 12.8571C25.7143 14.8848 22.0408 18.9795 22.0408 18.9795C22.0408 18.9795 18.3673 14.8848 18.3673 12.8571C18.3673 11.8828 18.7544 10.9484 19.4433 10.2595C20.1322 9.57062 21.0666 9.18359 22.0408 9.18359C23.0151 9.18359 23.9494 9.57062 24.6384 10.2595C25.3273 10.9484 25.7143 11.8828 25.7143 12.8571Z" stroke="black" stroke-width="1.95918"/>
<path d="M54.4898 23.8776C54.4898 25.9053 50.8163 30 50.8163 30C50.8163 30 47.1429 25.9053 47.1429 23.8776C47.1429 22.9033 47.5299 21.9689 48.2188 21.28C48.9077 20.5911 49.8421 20.2041 50.8163 20.2041C51.7906 20.2041 52.725 20.5911 53.4139 21.28C54.1028 21.9689 54.4898 22.9033 54.4898 23.8776Z" stroke="black" stroke-width="1.95918"/>
<path d="M41.6327 12.8571C41.6327 14.8848 37.9592 18.9795 37.9592 18.9795C37.9592 18.9795 34.2857 14.8848 34.2857 12.8571C34.2857 11.8828 34.6727 10.9484 35.3616 10.2595C36.0506 9.57062 36.9849 9.18359 37.9592 9.18359C38.9334 9.18359 39.8678 9.57062 40.5567 10.2595C41.2456 10.9484 41.6327 11.8828 41.6327 12.8571Z" stroke="black" stroke-width="1.95918"/>
<path d="M30 27.551L16.5306 37.3469V38.5714C16.5306 42.1437 17.9497 45.5697 20.4757 48.0957C23.0017 50.6217 26.4277 52.0408 30 52.0408C33.5723 52.0408 36.9983 50.6217 39.5243 48.0957C42.0503 45.5697 43.4694 42.1437 43.4694 38.5714V37.3469L30 27.551Z" stroke="black" stroke-width="1.95918"/>
</svg>
