<svg width="60" height="60" viewBox="0 0 60 60" fill="none" xmlns="http://www.w3.org/2000/svg">
<path d="M29.1012 37.3469L13.6972 34.9763C12.6491 34.8149 11.5786 34.8821 10.5589 35.1732C9.53924 35.4643 8.5946 35.9725 7.78975 36.6629C6.98489 37.3534 6.33886 38.2096 5.89594 39.1731C5.45303 40.1366 5.2237 41.1845 5.22369 42.2449V54.4898H29.1012L52.3666 47.1428V46.1828C52.3667 45.1833 52.1322 44.1976 51.682 43.3052C51.2318 42.4128 50.5784 41.6385 49.7744 41.0446C48.9704 40.4508 48.0383 40.0539 47.0529 39.8859C46.0676 39.7179 45.0566 39.7835 44.1012 40.0775L29.1012 44.6938V37.3469Z" fill="#FEBD69" fill-opacity="0.8"/>
<path d="M3.06122 54.4898H28.7755L52.0408 47.1428V46.1828C52.0399 45.1836 51.8048 44.1986 51.3542 43.3067C50.9037 42.4148 50.2504 41.641 49.4467 41.0473C48.643 40.4536 47.7113 40.0567 46.7264 39.8882C45.7415 39.7198 44.7308 39.7846 43.7755 40.0775L28.7755 44.6938M28.7755 44.6938H16.5306M28.7755 44.6938V37.3469L13.3714 34.9763C12.3234 34.8149 11.2528 34.8821 10.2332 35.1732C9.2135 35.4643 8.26886 35.9725 7.46401 36.6629C6.65915 37.3534 6.01312 38.2096 5.5702 39.1731C5.12729 40.1366 4.89796 41.1845 4.89795 42.2449" stroke="black" stroke-width="1.95918"/>
<path d="M22.6531 22.6531H56.9388" stroke="black" stroke-width="1.95918"/>
<path d="M39.7959 7.95923C36.2236 7.95923 32.7976 9.37832 30.2716 11.9043C27.7456 14.4303 26.3265 17.8563 26.3265 21.4286V22.6531H53.2653V21.4286C53.2653 17.8563 51.8462 14.4303 49.3202 11.9043C46.7942 9.37832 43.3682 7.95923 39.7959 7.95923Z" fill="white"/>
<path d="M39.7959 7.95923C36.2236 7.95923 32.7976 9.37832 30.2716 11.9043C27.7456 14.4303 26.3265 17.8563 26.3265 21.4286V22.6531H53.2653V21.4286C53.2653 17.8563 51.8462 14.4303 49.3202 11.9043C46.7942 9.37832 43.3682 7.95923 39.7959 7.95923Z" stroke="black" stroke-width="1.95918"/>
<path d="M39.7959 7.95924V3.06128" stroke="black" stroke-width="1.95918"/>
</svg>
